<svg width="163" height="81" viewBox="0 0 163 81" fill="none" xmlns="http://www.w3.org/2000/svg">
<circle cx="14.0999" cy="26.157" r="13.4128" fill="#C7DEFF"/>
<circle cx="156.629" cy="11.4282" r="6.30518" fill="#C7DEFF"/>
<g filter="url(#filter0_d_701_7)">
<path d="M97.3338 2.0459C97.4907 2.09668 97.6431 2.16132 97.8 2.19826C100.288 2.74305 102.166 4.81606 102.277 7.36922C102.365 9.35911 102.309 11.3629 102.194 13.3574C102.106 14.8025 101.372 16.0121 100.403 17.0832C100.205 17.3002 100.066 17.6465 100.048 17.942C99.9969 18.6992 100.048 19.4656 100.025 20.2274C100.002 20.9845 100.352 21.4139 101.058 21.6448C102.748 22.2034 104.442 22.7574 106.112 23.3761C108.808 24.3687 112.297 29.0688 113.003 31.862C113.197 32.6192 112.878 33.2286 112.237 33.3856C111.591 33.5426 111.042 33.1686 110.843 32.3976C110.289 30.2692 107.174 26.0862 105.102 25.3845C103.551 24.8628 102 24.3272 100.449 23.7916C98.5707 23.1453 97.7861 22.0418 97.7815 20.0565C97.7815 19.6779 97.7815 19.2994 97.7815 18.8238C97.4908 18.8885 97.2508 18.9439 97.0108 18.9946C96.2954 19.1424 95.7277 18.8331 95.5523 18.2005C95.3908 17.6188 95.7323 17.0648 96.3969 16.8385C99.1015 15.9105 100.071 14.5578 100.071 11.7045C100.071 10.3979 100.08 9.08671 100.071 7.78012C100.048 5.83178 98.5754 4.34975 96.6369 4.32204C95.8523 4.30819 95.0677 4.30819 94.2831 4.32204C92.4277 4.35898 90.9369 5.8364 90.9092 7.6924C90.8861 9.26216 90.8861 10.8319 90.9092 12.4063C90.9323 13.8145 91.5231 14.9502 92.58 15.8967C92.8892 16.1737 93.1292 16.6723 93.1615 17.0925C93.2446 18.159 93.1938 19.2301 93.1846 20.3012C93.1708 21.9726 92.3538 23.1637 90.7846 23.727C89.1554 24.3133 87.48 24.7981 85.8831 25.463C84.9646 25.8462 81.7615 27.6699 80.9584 28.2747C80.3169 28.7548 79.7261 28.9026 79.2461 28.464C78.7246 27.9884 78.7569 27.3328 79.3338 26.7095C80.2615 25.7123 83.7323 23.7962 85.0108 23.353C86.6492 22.7898 88.2831 22.208 89.9261 21.6586C90.6369 21.4231 90.9877 20.9799 90.9369 20.2274C90.9231 20.0381 90.9231 19.8442 90.9369 19.6549C91.0384 18.3529 90.8908 17.2079 89.8892 16.1552C88.9938 15.218 88.6892 13.8929 88.6708 12.5771C88.6477 10.7211 88.5461 8.85125 88.7446 7.01833C89.0215 4.46055 90.7846 2.7292 93.3046 2.17979C93.4154 2.1567 93.5215 2.09207 93.6277 2.05052C94.8646 2.05052 96.1015 2.05052 97.3384 2.05052L97.3338 2.0459Z" fill="#353957"/>
<path d="M49.7861 33.6123C50.9446 30.879 55.3246 30.3758 57.2446 33.5199C58.1123 34.9419 58.3938 36.5255 58.62 38.1276C58.7307 38.9263 59.1092 44.8637 59.1784 45.6671C59.2523 46.4935 58.86 47.066 58.1769 47.1352C57.5031 47.2045 57.0554 46.7013 56.9492 45.8748C56.7461 44.3235 56.2338 37.6382 55.9154 36.1054C55.7861 35.4821 55.4123 34.8773 55.0384 34.3417C54.6369 33.76 54 33.5384 53.28 33.603C52.3292 33.6907 52.0523 33.9908 52.0523 34.9373C52.0523 38.0307 52.0431 41.124 52.0615 44.2173C52.0615 44.6052 52.1538 45.0207 52.3061 45.3808C53.8938 49.1205 55.5184 52.8418 57.0969 56.5861C57.6969 58.0081 58.6107 59.1531 59.8154 60.095C62.2707 62.0156 64.7077 63.9547 67.1815 65.8477C67.8092 66.3278 68.1231 66.8634 68.0538 67.6621C68.0031 68.23 68.0584 68.8025 68.04 69.375C68.0123 70.0998 67.5277 70.5939 66.8954 70.5754C66.2861 70.5615 65.7138 70.0629 65.8246 69.4027C66.0784 67.916 65.2938 67.1358 64.2046 66.3463C62.2431 64.9243 60.3738 63.3684 58.4631 61.8771C56.9307 60.6813 55.7815 59.2224 55.0246 57.4125C53.4092 53.5574 51.7338 49.7253 50.0769 45.8841C49.9938 45.6901 49.8831 45.5055 49.7861 45.3162C49.7861 41.4102 49.7861 37.5089 49.7861 33.603V33.6123Z" fill="#353957"/>
<path d="M76.4031 19.1053C75.9092 19.6917 75.4846 20.1672 75.0923 20.6705C74.9769 20.8228 74.9077 21.0537 74.9077 21.2476C74.8892 22.1294 74.9077 23.0112 74.8938 23.8885C74.8846 24.521 75.1892 24.9134 75.7477 25.1535C76.5554 25.4998 77.4184 25.7629 78.1523 26.2246C79.2692 26.931 80.3308 27.7344 81.3415 28.5839C81.9415 29.0871 81.9138 29.8212 81.4338 30.2783C80.94 30.7492 80.2892 30.7077 79.7446 30.1075C78.7615 29.0225 77.5338 28.3207 76.2 27.7713C75.6738 27.5543 75.1384 27.3465 74.6308 27.0926C73.3661 26.4693 72.7108 25.4259 72.6554 24.0223C72.6323 23.4545 72.6554 22.8866 72.6554 22.2494C72.1846 22.3372 71.7784 22.4157 71.3677 22.4849C69.2677 22.6142 65.0031 20.3334 64.5184 19.8856C63.8861 19.2992 63.6369 18.7775 64.0384 18.1958C64.4261 17.6371 65.0354 17.5633 65.7323 18.0157C67.3061 19.0407 70.9154 20.6705 72.5584 19.7563C74.1923 18.8468 74.9723 17.3878 74.94 15.5087C74.9354 15.1348 74.94 14.7608 74.94 14.5484C73.4631 14.1652 72.0692 13.8836 70.7446 13.4219C69.9554 13.1449 69.24 12.6139 68.5477 12.1245C68.0031 11.7413 67.9523 11.1042 68.3077 10.6102C68.6492 10.1346 69.3323 9.95918 69.8261 10.3424C71.5661 11.6951 73.56 12.1384 75.7061 12.1107C76.0061 10.287 74.5984 7.98313 72.6 7.0736C69.1154 5.48537 65.0446 7.99237 64.9154 11.8013C64.7631 16.3536 64.1538 20.8505 63.1154 25.2828C63.0738 25.4628 63.0554 25.6521 62.9954 26.0215C63.8677 25.6152 64.6523 25.3105 65.3631 24.8811C65.6077 24.7333 66.0138 22.411 66.0923 22.0832C66.2584 21.363 66.7292 20.9475 67.38 21.0352C68.0123 21.1183 68.4092 21.6677 68.3308 22.3972C67.8969 23.0574 67.2692 26.5155 66.1061 27.0834C65.3815 27.4389 64.6292 27.7344 63.8861 28.0575C62.4138 28.6993 61.2138 29.6688 60.2723 30.9847C60.0461 31.3032 57.4569 34.4474 57.0969 34.4935C56.7831 34.5351 56.2846 34.2719 56.1092 33.9949C55.9338 33.7179 55.9061 33.1546 56.0769 32.8868C56.5292 32.1712 59.3215 28.7362 59.8431 28.0622C60.0415 27.8082 60.2538 27.5266 60.3323 27.2265C61.6569 22.1756 62.5061 17.0508 62.6677 11.8152C62.7923 7.77075 66.0461 4.50658 70.0661 4.35884C74.0769 4.2111 77.4877 7.15208 77.9354 11.1965C78.2446 13.9851 78.4569 16.783 78.7708 19.5716C78.9046 20.772 79.1861 21.9586 79.4031 23.1497C79.4446 23.3852 79.5046 23.6161 79.5277 23.8515C79.5831 24.5117 79.2323 24.9873 78.6231 25.1027C78.0415 25.2089 77.4969 24.8765 77.3631 24.2255C77.0492 22.688 76.7861 21.1414 76.5 19.5993C76.4769 19.4654 76.4492 19.3362 76.4077 19.1099L76.4031 19.1053Z" fill="#353957"/>
<path d="M118.311 39.5027C118.311 41.0493 118.357 42.6006 118.292 44.1427C118.265 44.8583 118.135 45.6108 117.858 46.2665C116.28 50.0339 114.628 53.7736 113.04 57.541C112.306 59.277 111.185 60.6851 109.717 61.8347C107.437 63.6261 105.157 65.4267 102.858 67.195C102.462 67.5043 102.258 67.8137 102.309 68.3215C102.351 68.7232 102.342 69.1341 102.305 69.5358C102.245 70.1637 101.742 70.6254 101.16 70.5792C100.532 70.5284 100.126 70.1591 100.089 69.5358C100.038 68.7047 100.002 67.8598 100.108 67.0426C100.158 66.6594 100.505 66.2393 100.828 65.9761C103.223 64.0601 105.637 62.1672 108.065 60.2881C109.431 59.2308 110.451 57.9519 111.12 56.3406C112.638 52.6747 114.245 49.0458 115.8 45.3939C115.943 45.0568 116.045 44.669 116.045 44.3043C116.063 41.114 116.04 37.9283 116.068 34.738C116.072 34.1424 115.832 33.8838 115.315 33.7176C114.277 33.3852 113.248 33.6992 112.749 34.8026C112.274 35.846 112.006 36.9957 111.766 38.1222C111.572 39.0225 111.498 45.7955 111.402 46.7189C111.332 47.4115 110.88 47.8639 110.266 47.8501C109.629 47.8362 109.094 47.296 109.182 46.5989C109.417 44.766 109.652 37.0741 110.1 35.2828C110.598 33.2836 111.798 31.7601 114.009 31.4046C115.269 31.2014 116.418 31.5477 117.406 32.3556C118.002 32.845 118.315 33.4822 118.306 34.2855C118.288 36.0215 118.302 37.7621 118.302 39.498L118.311 39.5027Z" fill="#353957"/>
<path d="M108.997 46.8259C107.598 45.8979 106.292 45.7455 104.991 46.4104C104.155 46.8397 103.357 47.3938 102.669 48.0309C101.137 49.4575 99.683 50.9673 98.2015 52.4447C97.5507 53.0957 96.8953 53.6174 95.9215 53.8898C93.5307 54.5593 91.6754 56.0828 90.3092 58.1605C89.1692 59.8918 88.5923 61.7986 88.6015 63.8855C88.6107 65.6445 88.6061 67.4082 88.6015 69.1718C88.6015 70.0675 88.1538 70.6031 87.4523 70.5846C86.7784 70.5661 86.3492 70.049 86.3584 69.1903C86.3815 66.9326 86.22 64.6472 86.4969 62.4173C87.1615 57.0432 90.2769 53.5481 95.2984 51.6691C95.6861 51.5259 96.0784 51.3043 96.3692 51.0227C98.0077 49.4298 99.5907 47.7816 101.248 46.2072C102.9 44.6375 104.788 43.5663 107.188 43.7649C108.909 43.908 110.303 44.716 111.457 45.9533C111.909 46.4381 111.868 47.0198 111.365 47.5508C110.778 48.174 110.16 48.7696 109.551 49.3744C106.975 51.9461 104.395 54.5177 101.815 57.0893C101.649 57.2555 101.483 57.4356 101.298 57.5787C100.782 57.9804 100.168 57.9527 99.7615 57.4818C99.3553 57.0108 99.3369 56.4891 99.7154 55.9859C99.8584 55.7966 100.038 55.635 100.205 55.4688C102.9 52.7771 105.591 50.0855 108.291 47.3984C108.475 47.2137 108.692 47.066 108.988 46.8213L108.997 46.8259Z" fill="#353957"/>
<path d="M59.1785 46.7656C59.3954 46.9964 59.5662 47.1857 59.7462 47.3658C62.4739 50.0898 65.2016 52.8138 67.9293 55.5378C68.0954 55.704 68.2846 55.8656 68.4139 56.0595C68.7462 56.5581 68.7231 57.0613 68.2985 57.4861C67.8739 57.9109 67.3708 57.9247 66.8677 57.6015C66.7108 57.5 66.5816 57.3522 66.4477 57.2183C63.3 54.0742 60.1523 50.9301 57.0046 47.7859C56.1416 46.9226 56.1508 46.4147 57.0462 45.5837C59.2108 43.5661 62.0354 43.1644 64.6108 44.6233C65.5708 45.1681 66.4569 45.8838 67.2693 46.6409C68.7831 48.0537 70.2046 49.5588 71.6908 50.9993C71.9816 51.281 72.3693 51.5256 72.7569 51.6503C78.0969 53.3724 81.7339 58.3079 81.7569 63.9175C81.7662 65.6535 81.7569 67.394 81.7569 69.13C81.7569 70.0442 81.3508 70.5751 80.6539 70.589C79.9339 70.6028 79.5139 70.058 79.5093 69.0977C79.5093 67.3848 79.5093 65.6719 79.5093 63.959C79.5 59.416 76.7031 55.3623 72.3923 53.9542C71.28 53.5894 70.4816 52.9984 69.7154 52.2182C68.3769 50.8654 67.0293 49.5173 65.6723 48.183C64.7308 47.2596 63.7108 46.4378 62.3954 46.1192C61.2554 45.8422 60.1985 46.0361 59.1831 46.7656H59.1785Z" fill="#353957"/>
<path d="M89.123 42.9429C88.8276 42.9983 88.5276 43.0676 88.2276 43.0999C87.6092 43.1692 87.0784 42.786 86.9584 42.2042C86.843 41.641 87.2076 41.0869 87.8169 40.9161C88.0246 40.8607 88.2369 40.8284 88.4399 40.7684C89.8846 40.3436 90.8861 39.0509 90.9184 37.5504C90.9369 36.7655 90.9323 35.9806 90.9184 35.1957C90.8907 33.2566 89.3769 31.7377 87.4799 31.7377C85.5784 31.7377 84.0599 33.252 84.0322 35.1865C84.023 35.8052 84.0553 36.4238 84.023 37.0425C83.9584 38.2891 84.3553 39.3233 85.3061 40.1543C85.4907 40.3159 85.6615 40.5606 85.7215 40.8007C86.3307 43.3031 85.3938 45.2145 83.0676 46.2902C82.8323 46.401 82.6107 46.5765 82.3523 46.6134C78.4661 47.149 78.1292 51.7936 77.6907 54.1344C77.5661 54.7946 77.0353 55.1547 76.4676 55.0716C75.8353 54.9793 75.4799 54.4945 75.5261 53.7835C75.5399 53.5942 76.223 50.5978 76.2692 50.4131C76.8646 47.9569 78.2769 46.1425 80.5384 45.0021C81.2169 44.6604 81.9184 44.3696 82.6015 44.0325C83.5892 43.5478 83.8984 42.0334 83.1784 41.1839C82.2276 40.062 81.7707 38.7739 81.7892 37.3149C81.803 36.2946 81.7476 35.2558 81.9046 34.2585C82.3615 31.396 84.8492 29.3969 87.6923 29.5031C90.5492 29.6092 92.9169 31.8577 93.1384 34.7525C93.2215 35.8144 93.203 36.8948 93.1384 37.9613C93.0599 39.1801 92.5661 40.2513 91.7815 41.1931C91.043 42.0796 91.3846 43.5708 92.423 44.0649C93.1107 44.3927 93.8169 44.6789 94.4769 45.0483C95.0769 45.3807 98.1507 47.4214 98.6815 47.8554C99.5353 48.5479 99.683 49.2173 99.1938 49.7945C98.7138 50.3623 98.0861 50.21 97.2138 49.5682C96.4199 48.9865 93.0322 46.8581 92.1415 46.4241C90.0184 45.3945 89.7969 45.1775 89.123 42.9522V42.9429Z" fill="#353957"/>
</g>
<defs>
<filter id="filter0_d_701_7" x="45.7861" y="0.0458984" width="80.5406" height="80.543" filterUnits="userSpaceOnUse" color-interpolation-filters="sRGB">
<feFlood flood-opacity="0" result="BackgroundImageFix"/>
<feColorMatrix in="SourceAlpha" type="matrix" values="0 0 0 0 0 0 0 0 0 0 0 0 0 0 0 0 0 0 127 0" result="hardAlpha"/>
<feOffset dx="2" dy="4"/>
<feGaussianBlur stdDeviation="3"/>
<feComposite in2="hardAlpha" operator="out"/>
<feColorMatrix type="matrix" values="0 0 0 0 0.454902 0 0 0 0 0.509804 0 0 0 0 0.972549 0 0 0 0.5 0"/>
<feBlend mode="normal" in2="BackgroundImageFix" result="effect1_dropShadow_701_7"/>
<feBlend mode="normal" in="SourceGraphic" in2="effect1_dropShadow_701_7" result="shape"/>
</filter>
</defs>
</svg>
