<svg width="129" height="91" viewBox="0 0 129 91" fill="none" xmlns="http://www.w3.org/2000/svg">
<circle cx="11.5615" cy="11.3494" r="11.2146" fill="#C7DEFF"/>
<circle cx="122.175" cy="52.3423" r="6.30518" fill="#C7DEFF"/>
<g filter="url(#filter0_d_670_326)">
<path d="M65.5602 79.9288C65.6674 79.5169 65.7235 79.3542 65.7542 79.1864C66.3308 76.1813 65.3969 73.8169 62.7381 72.2457C56.7518 68.7169 50.7094 65.2745 44.6721 61.827C44.3353 61.6338 43.7637 61.6033 43.3962 61.7406C40.3393 62.8795 37.2058 62.5897 34.0928 62.2287C33.5875 62.1677 32.9292 61.5117 32.7557 60.988C32.475 60.1694 33.1588 59.7524 33.9039 59.4626C37.1446 58.2066 38.4613 56.2592 38.4613 52.771C38.4613 46.2472 38.4459 39.7235 38.4766 33.1997C38.4766 32.2895 38.252 31.6794 37.5069 31.0539C35.1083 29.0302 33.8274 26.2437 32.7251 23.3962C32.5668 22.9895 32.8271 22.0895 33.169 21.8962C33.5977 21.6522 34.501 21.6725 34.8583 21.9776C37.6906 24.4132 40.5383 24.2912 43.631 22.4607C49.1018 19.2216 54.6339 16.0843 60.1608 12.947C60.9672 12.4894 61.3397 11.9555 61.5286 11.025C62.1512 7.98429 63.8761 5.46733 65.7797 3.09782C66.0706 2.73172 67.0249 2.53341 67.4383 2.7368C67.8363 2.93511 68.2038 3.8046 68.1119 4.28257C67.3821 7.92327 68.9744 10.2623 72.0415 11.9911C77.5838 15.1081 83.0801 18.3064 88.5714 21.5098C89.439 22.0132 90.1381 22.1251 91.1435 21.7844C94.0167 20.8132 97.0073 20.9708 99.9519 21.4488C100.427 21.5251 101.085 22.2166 101.126 22.6742C101.167 23.1166 100.615 23.8895 100.156 24.0471C96.6194 25.2776 95.3232 27.7895 95.3844 31.3946C95.4865 37.7455 95.4303 44.1015 95.3946 50.4574C95.3946 51.3269 95.609 51.8913 96.3081 52.4863C98.7322 54.5507 100.018 57.3829 101.156 60.2558C101.315 60.6626 100.942 61.5321 100.549 61.8219C100.228 62.0558 99.365 61.9287 98.9823 61.6389C95.8845 59.3202 93.7717 59.1473 90.4443 61.0643C84.8255 64.3033 79.2169 67.5575 73.5725 70.7559C72.7917 71.1982 72.4243 71.7372 72.2559 72.5915C71.6639 75.622 70.0461 78.1542 68.1272 80.4932C67.8261 80.8644 66.9943 81.0271 66.4788 80.9254C66.0859 80.8491 65.8052 80.2034 65.5653 79.9186L65.5602 79.9288ZM84.948 41.8845C84.948 38.7929 84.9225 35.7014 84.9684 32.6099C84.9786 31.7963 84.7643 31.3234 84.0243 30.9014C78.6045 27.8302 73.2 24.7234 67.821 21.5861C67.1321 21.1844 66.6524 21.225 65.9889 21.6115C60.6406 24.7234 55.2769 27.8098 49.8928 30.8658C49.1682 31.2777 48.9079 31.7353 48.913 32.5641C48.9487 38.7472 48.9487 44.9303 48.913 51.1134C48.913 51.9524 49.1886 52.3896 49.9081 52.8015C55.2871 55.8575 60.6508 58.949 65.994 62.066C66.6575 62.4524 67.1474 62.4778 67.8312 62.0761C73.2102 58.9338 78.6096 55.827 84.0243 52.7456C84.6928 52.3642 84.9786 51.9524 84.9633 51.1642C84.9174 48.0727 84.9429 44.9811 84.9429 41.8896L84.948 41.8845ZM41.1609 33.0777C41.1609 33.7234 41.1609 34.1811 41.1609 34.6438C41.1609 40.7353 41.1099 46.832 41.1865 52.9235C41.2171 55.232 40.4312 57.1236 38.9563 58.8117C38.7215 59.0812 38.5072 59.366 38.2418 59.6965C43.1615 60.1948 46.2133 57.4693 46.2184 52.7049C46.2184 46.5676 46.2184 40.4353 46.2184 34.298C46.2184 33.8404 46.2184 33.3828 46.2184 33.0777H41.1609ZM96.7419 57.7643C95.2364 53.6151 91.021 51.9422 87.316 53.9761C84.4581 55.5473 81.6512 57.2151 78.8239 58.8422C75.7415 60.6168 72.6641 62.3965 69.6531 64.1355C70.5718 65.5592 71.4495 66.9219 72.363 68.3355C72.659 68.1728 73.0265 67.9796 73.3888 67.7711C78.2013 65.005 83.0546 62.3151 87.8008 59.4422C90.5974 57.749 93.4043 56.6659 96.7419 57.7693V57.7643ZM36.8537 25.9691C37.6039 27.0115 38.0989 27.9624 38.8287 28.6793C41.0078 30.8149 43.9372 31.1556 46.6777 29.5946C52.4292 26.3302 58.1501 23.0098 63.8812 19.7098C64.0139 19.6335 64.1262 19.5318 64.167 19.5013C63.2484 18.0776 62.3808 16.7403 61.4673 15.3216C61.1866 15.4793 60.7835 15.6979 60.3803 15.9318C55.0524 18.9979 49.7193 22.0539 44.4016 25.1454C42.8042 26.0759 41.1252 26.503 39.288 26.2844C38.5786 26.203 37.8744 26.1014 36.8435 25.9691H36.8537ZM65.8409 8.06565C62.8861 11.9352 63.6567 16.0386 67.6526 18.3623C73.1796 21.581 78.727 24.7539 84.2743 27.942C84.5193 28.0844 84.7949 28.1709 84.9174 28.2217C85.7237 26.7573 86.4892 25.3742 87.2853 23.9251C86.9944 23.7471 86.6423 23.5234 86.28 23.3098C81.2889 20.4318 76.3386 17.4928 71.2964 14.7115C68.6018 13.2267 66.5248 11.3606 65.846 8.06056L65.8409 8.06565ZM48.9844 55.3693C48.1475 56.8948 47.3871 58.288 46.5961 59.7321C46.8818 59.9049 47.2391 60.1236 47.6014 60.3321C52.6997 63.2762 57.7623 66.2863 62.9167 69.1287C65.4786 70.5423 67.2546 72.4491 67.9996 75.2864C68.0099 75.3271 68.1323 75.3322 68.2038 75.3576C70.7351 71.8491 70.286 67.7609 66.8973 65.727C60.9825 62.1778 54.9554 58.8066 48.9946 55.3693H48.9844ZM92.6541 50.5439C92.6541 50.0913 92.6541 49.6337 92.6541 49.1812C92.6541 43.3337 92.7409 37.4912 92.6184 31.6488C92.5571 28.8014 93.3124 26.4064 95.3027 24.3827C95.3946 24.2861 95.4201 24.1234 95.4865 23.9657C90.577 23.5488 87.663 26.1725 87.6528 30.9522C87.6426 37.0946 87.6528 43.237 87.6528 49.3795C87.6528 49.8269 87.6936 50.2693 87.7038 50.549H92.6541V50.5439Z" fill="#353957"/>
</g>
<g filter="url(#filter1_d_670_326)">
<path d="M65.6614 39.6948C64.9003 39.2277 64.3219 38.6454 63.8957 37.9174C62.9094 36.231 62.8546 34.4475 63.4208 32.6215C63.9018 31.0685 64.8212 29.8067 66.1059 28.8118C66.3981 28.5874 66.6234 28.5753 66.8974 28.7815C69.3876 30.6499 70.5444 33.9076 69.7042 36.6556C69.3267 37.8871 68.6265 38.888 67.5306 39.5978C67.4941 39.622 67.4575 39.6524 67.3723 39.713C67.7619 40.1377 68.1333 40.5562 68.5291 40.9566C68.5961 41.0234 68.7544 41.0112 68.8701 41.0173C71.135 41.0537 73.3634 41.3267 75.5431 41.9758C76.9617 42.3943 78.3194 42.9403 79.4763 43.9049C80.1582 44.4751 80.6757 45.1485 80.8157 46.0584C80.8584 46.3314 80.8279 46.5801 80.6818 46.8288C77.9785 51.3179 74.0453 54.0356 68.8457 54.8303C62.2397 55.8373 55.6336 52.5736 52.3336 46.7803C52.1388 46.4345 52.2058 46.0948 52.291 45.7551C52.5285 44.8451 53.1373 44.2021 53.8679 43.6622C55.0065 42.819 56.3033 42.3155 57.655 41.9333C59.7616 41.3267 61.917 41.0598 64.1088 41.0355C64.3767 41.0355 64.5655 40.9627 64.7359 40.7564C65.0282 40.4107 65.3387 40.077 65.6736 39.707L65.6614 39.6948ZM76.0484 50.499C72.1822 49.6982 69.0223 47.7934 66.5077 44.8027C63.981 47.8055 60.821 49.7043 56.9853 50.499C62.0935 54.8121 70.38 55.164 76.0423 50.499H76.0484ZM53.7522 46.938C53.8192 47.0472 53.8618 47.1382 53.9288 47.2171C54.4646 47.8844 55.0126 48.5395 55.5362 49.2129C55.7615 49.498 56.005 49.5465 56.352 49.4859C60.0965 48.8125 63.1834 47.029 65.6188 44.1172C66.2033 43.4196 66.8243 43.4196 67.4027 44.1172C69.9051 47.1079 73.0772 48.9217 76.9434 49.5101C77.053 49.5283 77.2296 49.4737 77.2966 49.3949C77.9237 48.6609 78.5265 47.9086 79.1414 47.1625C79.1901 47.1018 79.2205 47.029 79.2632 46.9502C74.0636 46.5862 69.8381 44.3841 66.5138 40.441C63.1712 44.3902 58.9518 46.5922 53.7522 46.9502V46.938ZM66.5138 29.9159C65.43 30.8805 64.6872 32.0331 64.3524 33.4283C64.0053 34.8782 64.2976 36.8437 64.943 37.3896C64.943 37.3714 64.949 37.3532 64.943 37.335C64.5229 35.7093 65.0221 34.3625 66.1911 33.216C66.4468 32.9673 66.599 32.9733 66.8608 33.216C67.4453 33.768 67.8715 34.4232 68.0907 35.2057C68.2977 35.9458 68.3099 36.6859 68.0603 37.4806C69.4241 35.6365 69.071 32.0755 66.5138 29.9159ZM53.4296 45.743C53.4296 45.743 53.4783 45.7915 53.5026 45.8158C57.0888 45.652 60.2791 44.4569 63.0738 42.1942C62.398 42.2184 61.7282 42.273 61.0646 42.364C59.4207 42.5824 57.8072 42.9342 56.2668 43.5833C55.4327 43.9352 54.629 44.3538 53.9897 45.0089C53.7766 45.2273 53.6122 45.5003 53.4235 45.743H53.4296ZM79.5371 45.8158C79.5615 45.7854 79.5919 45.749 79.6163 45.7187C79.3545 45.4154 79.117 45.0817 78.8248 44.8087C78.1124 44.1596 77.254 43.7593 76.365 43.4196C74.6298 42.7583 72.8276 42.4247 70.9889 42.2427C70.6479 42.2063 70.3009 42.1942 69.9599 42.1699C72.7606 44.4569 75.9571 45.652 79.5371 45.8158Z" fill="#353957" stroke="#353957" stroke-miterlimit="10"/>
<path d="M67.8654 48.7217C67.7984 48.9219 67.7558 49.1342 67.6523 49.3102C67.4331 49.6984 67.1774 50.0624 66.9339 50.4385C66.7756 50.6811 66.6355 50.6811 66.4711 50.4385C66.2154 50.0502 65.9597 49.662 65.7222 49.2616C65.4787 48.8491 65.5396 48.3456 65.844 47.9877C66.1484 47.6298 66.6416 47.4963 67.0861 47.6601C67.5244 47.8178 67.8167 48.2364 67.8593 48.7217H67.8654Z" fill="#353957" stroke="#353957" stroke-width="0.75" stroke-miterlimit="10"/>
<path d="M65.1863 51.7305C65.1863 51.8519 65.1985 51.9246 65.1863 51.9974C65.162 52.143 65.0767 52.2098 64.955 52.1006C64.614 51.773 64.2 51.6699 63.7372 51.6335C63.3293 51.5971 63.0553 51.2756 63.0005 50.8752C62.9579 50.5355 63.1649 50.1654 63.4876 50.0077C63.8286 49.8439 64.2304 49.9167 64.5044 50.2079C64.9245 50.6447 65.1498 51.1724 65.1802 51.7305H65.1863Z" fill="#353957" stroke="#353957" stroke-width="0.75" stroke-miterlimit="10"/>
<path d="M67.8349 51.9002C67.8593 51.2026 68.0845 50.6688 68.5046 50.2199C68.7908 49.9166 69.1926 49.8377 69.5458 50.0197C69.8806 50.1895 70.0755 50.5657 70.0146 50.9175C69.9415 51.33 69.6432 51.6212 69.217 51.6455C68.7908 51.6697 68.4194 51.785 68.1028 52.0762C68.0602 52.1186 67.9262 52.1368 67.9201 52.1247C67.8714 52.0337 67.8471 51.9306 67.8349 51.9002Z" fill="#353957" stroke="#353957" stroke-width="0.75" stroke-miterlimit="10"/>
</g>
<defs>
<filter id="filter0_d_670_326" x="28.6776" y="0.655273" width="80.516" height="90.2998" filterUnits="userSpaceOnUse" color-interpolation-filters="sRGB">
<feFlood flood-opacity="0" result="BackgroundImageFix"/>
<feColorMatrix in="SourceAlpha" type="matrix" values="0 0 0 0 0 0 0 0 0 0 0 0 0 0 0 0 0 0 127 0" result="hardAlpha"/>
<feOffset dx="2" dy="4"/>
<feGaussianBlur stdDeviation="3"/>
<feComposite in2="hardAlpha" operator="out"/>
<feColorMatrix type="matrix" values="0 0 0 0 0.454902 0 0 0 0 0.509804 0 0 0 0 0.972549 0 0 0 0.5 0"/>
<feBlend mode="normal" in2="BackgroundImageFix" result="effect1_dropShadow_670_326"/>
<feBlend mode="normal" in="SourceGraphic" in2="effect1_dropShadow_670_326" result="shape"/>
</filter>
<filter id="filter1_d_670_326" x="47.7072" y="26.1348" width="41.6262" height="39.377" filterUnits="userSpaceOnUse" color-interpolation-filters="sRGB">
<feFlood flood-opacity="0" result="BackgroundImageFix"/>
<feColorMatrix in="SourceAlpha" type="matrix" values="0 0 0 0 0 0 0 0 0 0 0 0 0 0 0 0 0 0 127 0" result="hardAlpha"/>
<feOffset dx="2" dy="4"/>
<feGaussianBlur stdDeviation="3"/>
<feComposite in2="hardAlpha" operator="out"/>
<feColorMatrix type="matrix" values="0 0 0 0 0.454902 0 0 0 0 0.509804 0 0 0 0 0.972549 0 0 0 0.5 0"/>
<feBlend mode="normal" in2="BackgroundImageFix" result="effect1_dropShadow_670_326"/>
<feBlend mode="normal" in="SourceGraphic" in2="effect1_dropShadow_670_326" result="shape"/>
</filter>
</defs>
</svg>
