<svg width="116" height="78" viewBox="0 0 116 78" fill="none" xmlns="http://www.w3.org/2000/svg">
<circle cx="60.2467" cy="49.1472" r="28.3074" fill="#00FFDC"/>
<circle cx="13.6876" cy="13.5808" r="13.4128" fill="#00FFDC"/>
<circle cx="108.761" cy="36.5571" r="6.30518" fill="#00FFDC"/>
<path d="M57.7903 76.4522C51.5271 76.4522 45.2638 76.4522 39.0006 76.4522C38.7697 76.4522 38.5407 76.4522 38.3098 76.4522C36.8765 76.4392 36.3981 75.9804 36.3926 74.5539C36.3797 71.4593 36.3778 68.3648 36.3778 65.2684C36.3778 64.1447 36.3464 64.3546 35.4451 64.31C33.7033 64.2208 31.9634 64.2357 30.2217 64.2951C29.6491 64.3155 29.0729 64.2673 28.4984 64.2431C27.6599 64.2097 27.2609 63.84 27.2037 62.9949C27.1501 62.1869 27.1095 61.377 27.1076 60.5672C27.1002 55.5353 27.0929 50.5053 27.1169 45.4735C27.1243 44.1212 27.115 42.7616 27.4807 41.4354C27.8778 40.0014 28.4338 38.612 29.409 37.5124C31.2708 35.4153 33.5279 33.9349 36.4 33.608C37.1222 33.5263 37.8407 33.5114 38.5647 33.5114C41.9669 33.5114 45.371 33.5541 48.7732 33.4966C50.9268 33.4613 52.9493 33.8569 54.8535 34.8748C55.3781 35.1553 55.4668 35.1126 55.415 34.5182C55.2654 32.7629 55.718 31.1246 56.4198 29.5699C56.8299 28.6597 57.48 27.861 58.1745 27.1273C59.4619 25.7658 60.9339 24.6811 62.7329 24.096C63.9483 23.7003 65.1987 23.5109 66.4658 23.5034C70.0988 23.483 73.7319 23.4626 77.365 23.5127C79.5944 23.5443 81.7443 23.9827 83.6375 25.2792C84.814 26.0853 85.8816 27.027 86.6998 28.1991C87.9281 29.9562 88.5912 31.9456 88.5524 34.0947C88.4287 40.8465 88.5949 47.5984 88.4545 54.3484C88.4083 56.6164 87.4405 58.6131 86.0386 60.3703C84.4317 62.3838 82.3113 63.5837 79.8179 64.1075C79.3487 64.206 79.2046 64.3861 79.2065 64.8579C79.225 67.9859 79.2157 71.1139 79.2157 74.2418C79.2157 74.4406 79.2194 74.6393 79.2139 74.8381C79.1862 75.8374 78.6986 76.3686 77.7067 76.4373C77.1988 76.4726 76.6872 76.4541 76.1792 76.4541C70.0471 76.4541 63.9169 76.4541 57.7848 76.4541L57.7903 76.4522ZM59.883 56.0387C59.8922 56.0777 59.8996 56.1149 59.9088 56.1539C60.1619 56.1836 60.4186 56.2449 60.6698 56.2337C61.4049 56.2022 62.116 56.3285 62.7976 56.5848C65.0694 57.4392 66.6024 58.9976 67.2286 61.3919C67.4262 62.1479 67.3893 62.9392 67.5112 63.7026C68.0006 66.8064 68.3202 69.9325 68.7524 73.0438C68.8152 73.5007 68.9906 73.6567 69.4413 73.666C71.606 73.7069 73.7707 73.718 75.9373 73.6679C76.4027 73.6567 76.5431 73.497 76.5246 73.066C76.4895 72.1893 76.4489 71.3126 76.4544 70.4359C76.4692 68.0045 76.5043 65.5712 76.532 63.1398C76.532 63.0413 76.532 62.941 76.5468 62.8426C76.6299 62.2463 76.9254 61.8303 77.5276 61.6724C77.8305 61.5925 78.1352 61.5405 78.4492 61.5145C79.1049 61.4625 79.7587 61.3863 80.3886 61.1857C82.1303 60.6303 83.4214 59.488 84.4003 57.9797C84.8916 57.2238 85.3146 56.3879 85.4753 55.5093C85.7043 54.2444 85.7209 52.9479 85.7172 51.6532C85.6988 45.8264 85.7135 39.9995 85.7172 34.1727C85.7172 33.1529 85.6027 32.1573 85.1188 31.2379C84.5647 30.1847 83.9164 29.2021 83.0815 28.344C81.5965 26.819 79.7292 26.2989 77.7012 26.2841C73.7393 26.258 69.7775 26.2785 65.8138 26.2971C61.5915 26.3175 58.1191 30.0324 58.2114 34.0947C58.2428 35.4506 58.204 36.8084 58.217 38.1662C58.2225 38.8461 58.0064 39.368 57.3378 39.6169C56.7098 39.8491 56.1871 39.6875 55.7383 39.1915C55.2414 38.6399 54.7169 38.1161 54.1092 37.6814C52.7036 36.6765 51.1115 36.2549 49.4196 36.2438C45.4744 36.2177 41.5273 36.2289 37.5821 36.24C37.0926 36.24 36.5958 36.2958 36.1137 36.3923C32.5822 37.0963 29.9299 40.2837 29.9133 43.9225C29.8855 49.584 29.9096 55.2456 29.8948 60.9052C29.8948 61.3752 30.0241 61.5331 30.508 61.5275C32.6782 61.5034 34.8503 61.4606 37.0187 61.5349C38.7734 61.5944 39.1373 61.8674 39.1502 63.6859C39.165 65.9204 39.1557 68.1549 39.152 70.3894C39.152 71.2829 39.1668 72.1782 39.1133 73.0679C39.0855 73.5285 39.2462 73.6549 39.66 73.6586C41.2687 73.6716 42.8775 73.705 44.4862 73.7199C44.7633 73.7217 45.0422 73.6753 45.3211 73.653C45.5058 73.6381 45.624 73.5564 45.6591 73.3595C45.7865 72.663 45.9675 71.972 46.0433 71.2699C46.2113 69.7263 46.5512 68.2088 46.6269 66.6504C46.7008 65.1347 47.0074 63.6413 47.2531 62.1423C47.4969 60.6601 47.9032 59.28 49.0317 58.2119C50.3985 56.921 52.0442 56.3155 53.8876 56.1892C54.0224 56.1799 54.2126 56.295 54.2625 56.0833C54.305 55.9068 54.124 55.84 54.0021 55.7619C53.7398 55.5929 53.4683 55.4369 53.2079 55.2623C48.6088 52.1548 49.2571 45.6351 53.2596 43.2111C53.8986 42.8229 54.582 42.5387 55.2913 42.3306C57.4246 41.7028 59.4268 42.0297 61.2627 43.2742C62.7477 44.281 63.7636 45.6778 64.2419 47.4108C64.7831 49.363 64.5596 51.2632 63.4791 52.9925C62.7883 54.0995 61.8242 54.9558 60.679 55.5911C60.4131 55.7378 60.1508 55.8901 59.8867 56.0387H59.883ZM57.2805 58.9605C57.2805 58.9605 57.2805 58.9642 57.2805 58.9661C56.0966 58.9661 54.9127 58.9456 53.7306 58.9716C52.107 59.0069 50.6313 60.1623 50.1972 61.7337C50.0347 62.3225 49.8925 62.9243 49.8315 63.5298C49.5138 66.7042 49.0151 69.8563 48.6568 73.0252C48.6069 73.4691 48.7104 73.6363 49.185 73.6697C51.1041 73.8035 53.0232 73.6326 54.9422 73.6994C56.8908 73.7663 58.845 73.6716 60.7973 73.666C62.2084 73.6623 63.6195 73.6976 65.0306 73.7013C66.0058 73.7032 66.0557 73.6196 65.9431 72.6388C65.8193 71.5541 65.5478 70.4879 65.4259 69.4124C65.1821 67.2615 64.905 65.1143 64.6871 62.9596C64.4322 60.4353 62.5575 58.8193 60.2376 58.9493C59.255 59.0051 58.265 58.9586 57.2787 58.9586L57.2805 58.9605ZM61.525 48.8949C61.6598 48.2002 61.3107 47.6337 61.0134 47.0133C60.2745 45.4623 58.0452 44.3497 56.1816 44.8698C52.9862 45.7614 51.5917 49.1252 53.8617 52.2012C55.3245 54.1812 58.3592 54.2964 60.2173 52.6878C60.7141 52.2569 60.7806 51.6272 61.1463 51.1462C61.2886 50.9586 61.5121 50.7728 61.4843 50.5035C61.4308 49.9722 61.6173 49.4522 61.525 48.8968V48.8949Z" fill="#353957"/>
<path d="M53.9725 20.7145C54.1627 26.859 48.7713 31.3243 43.4352 31.2091C38.1583 31.0958 33.2065 27.0781 33.0495 20.8816C32.8832 14.3861 37.8554 10.205 43.5978 10.1288C48.9837 10.0564 54.244 14.4604 53.9706 20.7145H53.9725ZM43.5996 12.8704C39.9665 12.8648 36.8377 15.3464 36.0472 18.636C35.5355 20.7646 35.8883 22.7298 37.0095 24.578C37.7335 25.7742 38.5905 26.8181 39.852 27.5165C41.7526 28.5678 43.7806 28.787 45.7662 28.1462C48.4776 27.2732 50.2932 25.3916 50.9489 22.4995C51.5584 19.8043 50.9674 17.4342 49.1665 15.352C47.6298 13.5763 45.6295 12.9224 43.5978 12.8686L43.5996 12.8704Z" fill="#353957"/>
<path d="M61.5193 10.4361C61.3678 4.78754 66.6281 0.0584516 71.99 0.169899C77.4498 0.283204 82.494 4.40119 82.4017 10.8317C82.3186 16.7514 77.3482 21.4137 71.809 21.2874C66.4656 21.1666 61.2847 16.7292 61.5193 10.4361ZM72.038 2.93566C68.2369 2.67004 64.1845 5.94103 64.2455 10.6553C64.3009 14.8996 67.5258 18.4789 71.8552 18.5253C76.2973 18.5736 79.3947 15.1763 79.6127 11.0193C79.8509 6.48712 75.8429 2.62175 72.038 2.93566Z" fill="#353957"/>
</svg>
