<svg width="124" height="82" viewBox="0 0 124 82" fill="none" xmlns="http://www.w3.org/2000/svg">
<circle cx="58.1749" cy="43.1746" r="28.3074" fill="#00FFDC"/>
<circle cx="8.85999" cy="14.0896" r="8.85522" fill="#00FFDC"/>
<circle cx="116.79" cy="49.3433" r="6.30518" fill="#00FFDC"/>
<path d="M54.4051 48.9672C55.4838 54.2365 56.5111 59.2569 57.5384 64.2772C57.6831 64.984 57.8069 65.6955 57.9587 66.4023C58.1688 67.3791 58.4933 67.5083 59.2054 66.7804C61.4562 64.4721 63.6743 62.131 65.897 59.7922C67.5174 58.0875 69.0957 56.3404 70.7441 54.6639C71.3371 54.058 71.3581 53.8091 70.4989 53.5696C68.7501 53.0812 67.0247 52.5129 65.2783 52.0198C64.4588 51.7897 63.9731 51.3436 64.1809 50.4701C64.3864 49.613 65.1032 49.5543 65.8176 49.6482C67.3236 49.8454 68.7478 50.3879 70.2117 50.7659C76.6208 52.4237 83.1045 53.6565 89.6397 54.7155C93.7513 55.3824 97.8559 55.9178 101.998 56.2536C102.521 56.2958 103.041 56.4438 103.546 56.594C104.265 56.8101 104.979 57.1623 104.858 58.0546C104.734 58.9633 103.933 59.0925 103.191 59.0526C102.173 58.9962 101.146 58.9258 100.151 58.7168C98.7594 58.4233 97.8045 58.759 97.027 60.0482C96.2262 61.3749 95.1802 62.5513 94.2322 63.7841C94.0245 64.0541 93.7933 64.3124 93.5365 64.5308C93.0228 64.9652 92.4648 65.0967 91.8904 64.6341C91.2787 64.141 91.3931 63.5657 91.7854 63.021C92.6282 61.8492 93.4968 60.6986 94.356 59.541C95.1405 58.4843 95.1148 58.3693 93.8587 58.1532C88.8318 57.2891 83.798 56.4579 78.7735 55.5749C77.9353 55.427 77.8372 55.6689 78.0544 56.3921C78.9743 59.4494 79.8335 62.5255 80.7908 65.5687C81.4632 67.7079 82.1193 69.8517 82.7006 72.0191C82.8057 72.4136 82.8968 72.9537 83.289 73.0734C83.7887 73.226 83.8937 72.6038 84.1435 72.3126C85.4277 70.8145 86.6815 69.2905 87.9446 67.7736C88.2388 67.4191 88.568 67.1091 88.9859 66.9072C89.6163 66.5995 90.088 66.9072 90.4942 67.3416C90.8865 67.7595 90.723 68.208 90.4195 68.5814C88.2154 71.2888 86.0978 74.0714 83.7023 76.6121C82.7613 77.6101 82.285 77.5091 81.6476 76.3021C81.3651 75.7691 81.1433 75.1938 80.9565 74.6185C79.0093 68.5767 77.0527 62.5396 75.4721 56.3874C75.311 55.7604 75.381 54.8071 74.6455 54.6521C73.9428 54.5018 73.5505 55.3425 73.0999 55.8332C68.6077 60.7268 64.0642 65.5664 59.3362 70.2321C59.2008 70.366 59.0653 70.4975 58.9206 70.6219C57.4823 71.8594 56.7119 71.6269 56.2356 69.7672C54.5125 63.0257 53.2073 56.1925 51.9278 49.357C51.8858 49.1339 51.8461 48.9085 51.7878 48.6878C51.5683 47.8683 51.1574 47.711 50.5036 48.3004C48.6124 49.9957 46.6885 51.6559 44.823 53.3794C41.5613 56.3921 38.1034 59.1723 34.7436 62.0676C33.268 63.338 32.1287 62.9223 31.8508 60.971C31.2181 56.533 30.6577 52.0832 30.109 47.6335C29.7892 45.0317 29.5137 42.4229 29.2942 39.8118C29.2195 38.9312 28.8342 38.4099 28.0871 38.06C27.4007 37.7383 26.7259 37.4002 26.0441 37.0715C25.6682 36.8907 25.262 36.7592 24.9211 36.5314C24.2697 36.0993 23.3638 35.6508 23.7537 34.7069C24.181 33.6737 25.1546 34.0071 25.9321 34.3006C28.9463 35.4442 31.7131 37.1231 34.6689 38.4005C42.4182 41.7513 50.2351 44.9143 58.3159 47.3799C59.0023 47.5889 59.6701 47.8612 60.3472 48.1055C61.0803 48.3708 61.6687 48.7277 61.4095 49.6764C61.1293 50.7049 60.3355 50.5147 59.6561 50.355C57.9703 49.9558 56.3009 49.4744 54.4121 48.9696L54.4051 48.9672ZM32.0469 41.4249C32.1146 41.9955 32.1917 42.6742 32.2734 43.3528C32.8571 48.1407 33.5389 52.9168 33.9568 57.7259C34.0736 59.0667 34.279 59.1418 35.3414 58.2213C39.3222 54.7695 43.275 51.2872 47.2162 47.7885C48.2412 46.8774 48.2085 46.6097 46.8893 46.1353C42.2197 44.4635 37.7229 42.3736 33.1303 40.5162C32.0469 40.0795 31.9792 40.1499 32.0493 41.4226L32.0469 41.4249Z" fill="#353957"/>
<path d="M47.6645 20.5106C43.6883 21.0553 39.1075 21.5626 34.4915 21.6471C33.4549 21.6659 33.3895 21.896 33.9382 22.7765C34.7624 24.0986 35.5889 25.4182 36.3664 26.7661C36.7586 27.4447 37.2886 28.2384 36.308 28.8512C35.3507 29.45 34.7133 28.7925 34.251 28.0599C33.1584 26.3246 32.061 24.587 31.0991 22.7789C30.6461 21.9242 30.1301 21.687 29.2195 21.7387C27.7509 21.8208 26.2707 21.9077 24.8044 21.64C24.2277 21.5344 23.616 21.417 23.5553 20.7102C23.4899 19.9517 23.9919 19.529 24.6643 19.3224C24.9492 19.2355 25.2597 19.2027 25.5586 19.198C31.0033 19.1416 36.4574 18.9655 41.8625 18.4395C47.4894 17.8924 53.142 17.5895 58.7385 16.5375C64.6806 15.4198 70.6647 14.4876 76.5228 13.0082C84.7343 10.9371 92.8571 8.52793 100.751 5.40253C101.526 5.09493 102.306 4.78262 103.135 4.68165C103.861 4.59242 104.531 4.77558 104.737 5.60213C104.937 6.41694 104.384 6.76446 103.74 7.01572C102.472 7.50883 101.216 8.04186 99.9292 8.48332C99.0864 8.77449 98.6474 9.2723 98.4723 10.1669C97.2395 16.4694 95.9717 22.7625 94.7156 29.0579C94.6782 29.2434 94.6806 29.4406 94.6292 29.6214C94.3911 30.4762 94.4658 31.5821 93.3848 31.8757C92.3434 32.1574 91.7037 31.291 91.1083 30.6452C86.8333 26.0217 82.5139 21.4381 78.4 16.6643C78.1782 16.406 77.9563 16.1407 77.6995 15.9199C76.894 15.2202 76.1422 15.3822 75.7266 16.3755C75.4931 16.9343 75.332 17.5261 75.1662 18.1108C73.4899 23.9952 71.8228 29.8797 70.1464 35.7642C69.8989 36.6354 69.7565 37.732 68.7479 37.9503C67.6902 38.1781 67.2232 37.1144 66.6979 36.4193C63.0299 31.5774 59.3969 26.7097 55.7476 21.8537C55.4511 21.4592 55.1499 21.0694 54.8277 20.6937C53.8027 19.5009 52.8595 19.6183 52.2851 21.0906C50.9776 24.4555 49.7565 27.8533 48.442 31.2158C47.2933 34.1534 46.1095 37.0768 44.8558 39.9674C44.1903 41.5031 43.3872 41.6487 42.3645 40.3361C40.5714 38.0325 39.0024 35.5576 37.5081 33.0427C37.1532 32.4463 37.2116 31.8451 37.7696 31.406C38.337 30.9575 38.8763 31.2698 39.2919 31.6737C40.45 32.7938 41.099 34.2896 42.047 35.567C42.4252 36.0765 42.647 37.0181 43.2424 36.9618C43.8681 36.9031 43.8261 35.9262 44.0502 35.3533C45.8107 30.8613 47.5478 26.3575 49.2755 21.8514C49.8476 20.3626 49.8126 20.3368 47.6622 20.5153L47.6645 20.5106ZM95.82 10.6272C95.9063 9.86403 95.5048 10.0331 95.0565 10.181C90.8235 11.5735 86.6138 13.0434 82.2664 14.0555C81.8648 14.1494 81.4796 14.3208 81.085 14.4476C80.3378 14.6895 80.3495 15.1122 80.8165 15.6241C84.3607 19.522 87.9096 23.4129 91.4515 27.3132C92.1426 28.074 92.4205 27.7499 92.5746 26.9281C92.9038 25.1764 93.2423 23.4246 93.5926 21.6776C94.3304 17.9934 95.0752 14.3114 95.8176 10.6272H95.82ZM72.1053 16.5939C71.2695 16.8052 70.3262 17.094 69.3642 17.2748C65.6542 17.9699 61.9419 18.6555 58.2202 19.2848C57.2793 19.4445 57.2419 19.7404 57.7579 20.4237C58.5097 21.424 59.2125 22.4619 59.962 23.4622C62.3271 26.6181 64.7016 29.7694 67.0855 32.9112C67.3049 33.2024 67.5057 33.6579 67.9167 33.6063C68.3579 33.5522 68.3649 33.038 68.4653 32.6975C68.8809 31.2769 69.2522 29.8445 69.6538 28.4192C70.6741 24.8007 71.7037 21.1868 72.7194 17.566C72.8454 17.1175 73.1443 16.5305 72.1053 16.5915V16.5939Z" fill="#353957"/>
<path d="M34.2394 6.0311C33.4643 5.25855 32.5467 4.6222 31.9537 3.66885C31.6758 3.22035 31.5007 2.7836 31.9046 2.31396C32.2875 1.87016 32.7498 1.87251 33.2471 2.06741C33.9289 2.33275 34.5103 2.75072 35.0333 3.25323C35.5212 3.72286 35.7244 3.57962 35.7594 2.94562C35.7921 2.37736 35.8341 1.80911 35.9205 1.2479C36.0232 0.588068 36.3571 0.0573842 37.0949 0.106695C37.814 0.153659 38.309 0.627986 38.372 1.34652C38.4491 2.21064 38.3907 3.08886 38.3907 4.08447C39.2686 3.41055 39.8173 2.47599 40.8166 2.13785C41.3583 1.9547 41.9466 1.70579 42.3762 2.28109C42.7825 2.82351 42.5093 3.37768 42.1965 3.86844C41.7295 4.60342 40.98 5.07305 40.352 5.69061C40.7956 6.11798 41.2742 5.93013 41.7015 5.95596C42.2315 5.98883 42.7568 5.99118 43.2681 6.16494C43.8332 6.35749 44.3562 6.6064 44.3141 7.32024C44.2744 8.02703 43.8192 8.39804 43.1677 8.55302C42.3295 8.75261 41.4703 8.75026 40.5878 8.67277C40.6391 9.30443 41.0804 9.45236 41.3746 9.71066C41.8089 10.0934 42.1848 10.5208 42.4019 11.0538C42.6121 11.5681 42.6564 12.1081 42.1591 12.512C41.7085 12.8783 41.2439 12.7515 40.7816 12.505C39.8967 12.0283 39.2966 11.2252 38.3767 10.3423C38.3767 11.3473 38.4117 12.1457 38.3674 12.9394C38.3253 13.6814 38.1969 14.4445 37.2373 14.5079C36.245 14.5737 35.9392 13.8599 35.8294 13.0544C35.736 12.3547 35.736 11.6408 35.6847 10.7485C34.8932 11.4131 34.3071 12.0518 33.546 12.4533C32.995 12.7445 32.4696 12.829 31.9887 12.3406C31.482 11.8264 31.6665 11.3051 32.0027 10.7932C32.3809 10.2155 32.8385 9.71535 33.4222 9.3373C33.574 9.23868 33.7771 9.12127 33.7024 8.89585C33.6371 8.69391 33.4293 8.64929 33.2378 8.6446C32.6704 8.62581 32.1031 8.62816 31.5381 8.59763C30.7092 8.55537 29.9924 8.26419 29.934 7.32728C29.878 6.43733 30.6135 6.26356 31.3022 6.09919C32.2782 5.86203 33.2611 6.01701 34.2394 6.02405C34.6504 6.2166 34.9259 6.47725 34.7858 6.99384C34.5103 8.00355 35.094 8.65164 35.7687 9.23398C36.4855 9.85625 37.4475 9.82572 38.0989 9.44062C38.762 9.04848 39.6375 8.54362 39.6118 7.48461C39.5861 6.38097 39.0328 5.55912 38.0732 5.16228C37.2397 4.8171 36.3127 4.70908 35.5656 5.5192C35.2154 5.89725 34.7461 6.04519 34.2324 6.03344L34.2394 6.0311Z" fill="#353957"/>
<path d="M41.2834 75.6778C40.2258 75.7482 39.1658 75.8093 38.1314 75.4993C37.5944 75.3373 37.1345 75.0649 37.1578 74.4121C37.1788 73.818 37.6295 73.5597 38.1151 73.4188C39.0537 73.1488 40.0203 73.0925 41.162 73.2498C40.5713 72.3058 39.7355 71.7916 39.3082 70.9486C39.0397 70.4179 38.7478 69.9178 39.2405 69.3871C39.7425 68.8493 40.3075 68.9644 40.9005 69.2532C41.7761 69.6806 42.222 70.5846 43.0672 71.2538C43.1326 70.2888 43.226 69.4434 43.2353 68.5981C43.2447 67.788 43.5202 67.2361 44.3817 67.2315C45.2106 67.2291 45.6168 67.7715 45.6495 68.5488C45.6916 69.6101 45.6589 70.6739 45.6589 71.8925C46.2472 70.6973 46.9944 69.8332 48.0077 69.1992C48.6241 68.8141 49.1611 68.8893 49.6421 69.3871C50.1067 69.8708 49.9036 70.3639 49.579 70.8312C49.2965 71.2351 49.0233 71.6483 48.7268 72.0405C47.9937 73.0126 47.0458 73.231 45.9344 72.705C44.2393 71.8996 43.6346 72.0053 42.3575 73.2756C42.1613 73.4705 41.9512 73.5785 42.0983 73.9214C42.4742 74.7949 41.9419 75.2692 41.2858 75.6731H41.2834V75.6778Z" fill="#353957"/>
<path d="M42.6424 78.1943C42.8945 78.0206 43.1537 77.8421 43.2354 77.5298C43.4035 76.8934 43.8518 76.7619 44.4378 76.7361C46.0675 76.6633 46.6372 76.0411 46.5812 74.4467C46.5625 73.8995 46.6792 73.4628 47.2886 73.3289C48.4957 73.0612 49.6935 73.1176 50.8632 73.498C51.3022 73.6412 51.7131 73.9042 51.6968 74.4537C51.6827 74.968 51.3279 75.2591 50.8936 75.4611C49.8943 75.926 48.8063 75.5926 47.6295 75.7992C48.2926 76.5295 48.9067 77.1611 49.467 77.8374C49.8639 78.3164 50.1955 78.8847 49.6678 79.4717C49.1238 80.0775 48.4724 80.0259 47.821 79.6244C47.0902 79.1759 46.5065 78.5442 45.9461 77.8867C45.8527 77.9243 45.7593 77.9595 45.6659 77.9971C45.6659 78.772 45.7126 79.5516 45.6519 80.3241C45.6006 80.9957 45.3648 81.6203 44.5382 81.6626C43.6533 81.7072 43.3638 81.0919 43.2541 80.364C43.1397 79.6079 42.9506 78.88 42.647 78.1802L42.6377 78.1896L42.6424 78.1943Z" fill="#353957"/>
<path d="M91.2158 43.3931C91.022 43.379 90.611 43.3462 90.2001 43.3156C89.5417 43.2663 88.8483 43.2358 88.9253 42.2895C88.993 41.4442 89.2125 40.6974 90.2795 40.6951C91.2555 40.6951 92.2314 40.6246 93.1957 40.8665C93.8821 41.0379 94.2347 41.4348 94.2043 42.1509C94.174 42.8413 93.7304 43.1607 93.121 43.2522C92.5653 43.3344 91.9979 43.3391 91.2181 43.3908L91.2158 43.3931Z" fill="#353957"/>
<path d="M84.6527 38.9212C84.704 37.7472 84.7741 36.5731 84.7997 35.399C84.8184 34.5678 85.206 34.1287 86.0232 34.077C86.817 34.0277 87.1906 34.4668 87.3073 35.2088C87.4427 36.0776 87.4778 36.9488 87.3423 37.8153C87.1322 39.1537 86.761 39.3932 85.4091 39.1068C85.1523 39.0527 84.8978 38.9753 84.6433 38.9072L84.6527 38.9236V38.9212Z" fill="#353957"/>
<path d="M80.7884 43.2871C80.2234 43.2871 79.6584 43.32 79.0957 43.2777C78.442 43.2284 78.0614 42.848 78.0567 42.167C78.052 41.5448 78.2598 41.0446 78.9346 40.892C79.9736 40.6572 81.0173 40.6266 82.0726 40.8051C82.9948 40.9624 83.3287 41.5518 83.3054 42.4136C83.2797 43.381 82.5466 43.2847 81.9162 43.3176C81.5403 43.3364 81.1643 43.32 80.7861 43.32C80.7861 43.3082 80.7861 43.2965 80.7861 43.2847L80.7884 43.2871Z" fill="#353957"/>
<path d="M84.6409 38.9056C84.5171 39.2625 84.4564 39.664 84.2533 39.9646C83.9147 40.4624 83.4104 40.8264 82.8197 40.3943C81.8414 39.6781 80.9145 38.8938 80.2491 37.8513C79.9689 37.4098 79.8008 36.9824 80.2257 36.5081C80.6764 36.0056 81.1573 35.9328 81.741 36.2522C82.9295 36.9049 83.8167 37.8818 84.6502 38.922L84.6409 38.9056Z" fill="#353957"/>
<path d="M84.774 47.2836C84.774 47.0182 84.767 46.7529 84.774 46.4875C84.7997 45.7408 84.6386 44.9284 85.8714 44.9918C87.1392 45.0575 87.3399 45.1749 87.389 46.5298C87.4193 47.3634 87.4287 48.1947 87.2792 49.0259C87.1508 49.7397 86.7936 50.1272 86.0698 50.099C85.374 50.0708 84.9234 49.6857 84.851 48.9883C84.7927 48.4271 84.8394 47.8518 84.8394 47.2836C84.8183 47.2836 84.795 47.2836 84.774 47.2836Z" fill="#353957"/>
<path d="M81.0523 48.1075C80.1628 48.1075 79.6795 47.2527 80.1791 46.3933C80.8585 45.2286 81.9255 44.4091 83.0439 43.707C83.6626 43.3196 84.5802 44.1461 84.4938 44.9281C84.3888 45.8767 81.9699 48.1075 81.0523 48.1051V48.1075Z" fill="#353957"/>
<path d="M90.9892 48.0909C90.0156 48.0674 87.8722 46.0691 87.8489 45.1087C87.8372 44.6086 87.9983 44.1343 88.4606 43.836C88.9205 43.5378 89.3315 43.6975 89.698 44.0122C90.5572 44.7471 91.4865 45.4281 92.0025 46.4754C92.4297 47.3395 91.9278 48.1097 90.9892 48.0886V48.0909Z" fill="#353957"/>
<path d="M87.7717 39.3211C87.7764 38.2081 89.9408 36.1065 91.0732 36.1182C91.8857 36.1276 92.4507 37.0457 91.9837 37.7244C91.2996 38.72 90.4264 39.5606 89.4761 40.305C89.1213 40.5821 88.7127 40.5938 88.3111 40.3707C87.9025 40.143 87.7811 39.7626 87.7717 39.3234V39.3211Z" fill="#353957"/>
<path d="M42.6492 78.1826C42.0818 78.6733 41.5822 79.2486 40.8957 79.5844C40.3331 79.8591 39.7307 80.0705 39.2404 79.528C38.7501 78.9856 38.9555 78.3727 39.3524 77.8796C39.9618 77.1188 40.6366 76.4097 41.2833 75.6794H41.2857C43.1558 75.6559 43.457 76.2148 42.6422 78.1966L42.6515 78.1872L42.6492 78.1826Z" fill="#353957"/>
</svg>
