<svg width="121" height="81" viewBox="0 0 121 81" fill="none" xmlns="http://www.w3.org/2000/svg">
<circle cx="60.6071" cy="31.1472" r="28.3074" fill="#00FFDC"/>
<circle cx="114.206" cy="38.9868" r="6.30518" fill="#00FFDC"/>
<circle cx="7.01404" cy="19.6245" r="6.30518" fill="#00FFDC"/>
<path d="M91.3342 8.29213C91.9383 8.59399 92.499 8.45328 93.0368 8.46689C94.0277 8.49186 94.9568 8.63031 95.6158 9.48369C95.9385 9.9013 96.4054 9.98755 96.9088 9.98074C97.7235 9.96939 98.5405 9.94669 99.3529 9.98755C100.676 10.0534 101.142 10.5255 101.186 11.8305C101.22 12.8586 101.211 13.889 101.211 14.9172C101.211 27.3434 101.211 39.7674 101.211 52.1936C101.211 52.4501 101.211 52.7088 101.209 52.9653C101.177 55.126 100.769 55.5436 98.5908 55.5504C95.5907 55.5595 92.5905 55.5754 89.5927 55.5277C88.6224 55.5118 88.2631 55.8455 88.3111 56.8055C88.5835 62.2776 88.4691 67.7542 88.4851 73.2309C88.4874 74.1478 88.4828 75.0647 88.3615 75.9816C88.2059 77.1732 88.4485 77.4092 89.6316 77.4977C90.1465 77.5363 90.666 77.5931 91.1648 77.7134C91.8033 77.8654 92.0253 78.3852 92.0367 78.973C92.0482 79.5699 91.6019 79.7946 91.0962 79.8741C90.5882 79.9558 90.0687 80.0193 89.5538 80.0193C67.9257 80.0261 46.2977 80.0284 24.6697 80.0193C23.8962 80.0193 23.1181 79.9626 22.3469 79.8786C21.8526 79.8241 21.372 79.6357 21.3446 79.0343C21.3217 78.4873 21.5643 78.0311 22.0494 77.7429C22.443 77.5091 22.8938 77.4887 23.3401 77.4819C26.3723 77.4501 29.4044 77.357 32.4343 77.4183C33.5122 77.441 33.796 77.0847 33.7891 76.111C33.7593 72.1051 33.7502 68.0969 33.7731 64.091C33.7868 61.8146 33.8967 59.5382 33.9195 57.2617C33.9356 55.6503 33.8211 55.5618 32.2467 55.5572C29.2465 55.5504 26.2464 55.5663 23.2463 55.5459C21.5391 55.5345 21.0974 55.0829 21.0539 53.367C21.0333 52.5227 21.0311 51.6762 21.0608 50.8318C21.0906 49.9149 21.5208 49.2363 22.4911 49.1682C23.4202 49.1024 23.6078 49.8491 23.7406 50.564C23.7932 50.8523 23.8413 51.1451 23.8573 51.4356C23.9603 53.19 23.9557 53.1991 25.6857 53.1991C49.2773 53.1991 72.8688 53.1991 96.458 53.1991C98.3505 53.1991 98.3734 53.1673 98.3734 51.2926C98.3734 38.7574 98.362 26.22 98.394 13.6848C98.3963 12.6181 98.0622 12.2549 96.9981 12.2958C96.1422 12.3275 95.8035 12.6158 95.8081 13.4669C95.8127 14.2726 95.7097 15.0783 95.625 15.8818C95.5449 16.6444 95.0895 17.0733 94.3252 17.155C91.3319 17.4751 88.3386 17.4365 85.3499 17.1255C84.4322 17.0302 84.002 16.4378 83.9562 15.5504C83.9173 14.781 83.8464 14.0071 83.8693 13.2377C83.8899 12.55 83.5764 12.3275 82.9425 12.323C82.2422 12.3185 81.5328 12.3775 80.8486 12.1437C80.3314 11.9667 79.8622 11.7034 79.8577 11.0974C79.8508 10.4664 80.3543 10.2372 80.876 10.1056C81.1964 10.0261 81.5351 9.9762 81.8623 9.98301C82.915 10.0057 83.8578 9.97847 84.565 8.92536C85.0341 8.22631 85.9998 8.53044 86.7619 8.47824C87.0045 8.46235 87.2653 8.50775 87.6933 8.08787C79.162 7.76104 70.887 7.90403 62.6005 8.17411C63.1452 8.57811 63.7676 8.43285 64.3535 8.44647C65.3032 8.46916 66.1888 8.58264 66.8937 9.32254C67.269 9.71519 67.7427 9.91265 68.301 9.62441C69.0402 9.24311 69.5254 10.067 70.276 10.0034C71.8184 9.86953 73.3837 9.97166 74.9398 9.97393C75.5005 9.97393 76.052 10.0307 76.5623 10.2758C76.917 10.446 77.1573 10.7002 77.1665 11.1246C77.1756 11.5468 76.949 11.8101 76.5966 11.9939C76.0543 12.2776 75.4661 12.3185 74.8689 12.3162C72.6834 12.3139 70.4979 12.3457 68.3148 12.3048C67.4612 12.289 67.079 12.6339 67.0516 13.4442C67.0287 14.1047 66.9783 14.7651 66.976 15.4256C66.976 16.4673 66.5389 17.0938 65.4313 17.1868C62.5479 17.4274 59.6668 17.4546 56.7879 17.1573C55.781 17.0529 55.3164 16.481 55.2615 15.4687C55.0922 12.3117 55.0762 12.3162 51.9547 12.3162C47.9545 12.3162 43.9543 12.3412 39.9564 12.2935C38.8923 12.2799 38.3225 12.5432 38.4346 13.6984C38.469 14.057 38.3751 14.4292 38.3408 14.7946C38.1394 16.9372 38.0662 17.1165 35.9311 17.2526C33.3497 17.4161 30.7546 17.4569 28.1687 17.1936C27.0634 17.0824 26.6217 16.4696 26.6034 15.4369C26.5897 14.7016 26.5668 13.9685 26.5347 13.2331C26.4844 12.0665 25.5965 12.3593 24.8985 12.3139C24.1296 12.2617 23.8527 12.6112 23.8596 13.3625C23.8847 15.8999 23.8664 18.4351 23.8664 20.9726C23.8664 28.4351 23.8664 35.8977 23.8664 43.3602C23.8664 44.0593 23.8664 44.7538 23.6628 45.4369C23.482 46.0407 23.0861 46.3811 22.4751 46.4265C21.8183 46.4764 21.4681 46.077 21.2645 45.5028C21.0745 44.9717 21.0425 44.4247 21.0425 43.8732C21.0425 33.2853 21.0379 22.6975 21.0425 12.1097C21.0425 10.4165 21.491 9.99436 23.2371 9.96258C23.8664 9.95123 24.498 9.93308 25.1251 9.96712C25.8391 10.0057 26.4272 9.83094 26.8826 9.24311C27.354 8.63485 28.0428 8.51683 28.7706 8.48278C29.4273 8.45101 30.0978 8.58945 30.8507 8.3466C30.5029 7.94488 30.0887 8.0629 29.7363 8.05155C27.5165 7.99254 25.2967 7.95623 23.0769 7.90402C21.4842 7.86544 21.1295 7.53861 21.0745 5.93852C21.0356 4.80144 21.0356 3.65754 21.0906 2.52046C21.1363 1.57629 21.5574 0.913558 22.649 0.881783C23.3492 0.861356 24.0495 0.729718 24.7475 0.729718C48.6708 0.720639 72.5964 0.722908 96.5198 0.722908C97.5564 0.722908 98.5885 0.766032 99.6229 0.879513C100.472 0.970299 100.914 1.4038 101.039 2.17093C101.282 3.66662 101.268 5.17139 101.033 6.66708C100.884 7.61351 100.188 7.8836 99.3277 7.89495C97.0347 7.92218 94.7417 7.95396 92.4486 7.97665C92.0871 7.98119 91.7095 7.86771 91.3273 8.28305L91.3342 8.29213ZM61.1863 55.5572V55.5481C54.9686 55.5481 48.7532 55.564 42.5355 55.5323C41.54 55.5277 41.1693 55.8114 41.1762 56.8464C41.2128 63.274 41.2128 69.7038 41.1716 76.1314C41.1647 77.2141 41.5538 77.5341 42.5973 77.4955C45.2588 77.3979 47.9225 77.3366 50.5839 77.3389C60.2778 77.348 69.9716 77.2254 79.6654 77.4932C80.7021 77.5227 81.1026 77.2322 81.0957 76.1428C81.0545 69.7515 81.0522 63.3602 81.0957 56.9689C81.1026 55.8409 80.7158 55.5345 79.6174 55.5413C73.4752 55.5845 67.3307 55.5618 61.1886 55.5618L61.1863 55.5572ZM61.1337 5.37792V5.40062C71.8733 5.40062 82.6106 5.40062 93.3503 5.40062C94.7577 5.40062 96.1651 5.37338 97.5702 5.36885C98.1674 5.36885 98.4512 5.09195 98.4421 4.49277C98.4352 3.90266 98.3849 3.35341 97.6136 3.31029C97.1697 3.28532 96.7257 3.28986 96.2818 3.28986C72.8413 3.28986 49.4008 3.28986 25.9626 3.28986C25.6285 3.28986 25.2944 3.31483 24.9626 3.28986C24.0701 3.21723 23.8046 3.64165 23.8344 4.48142C23.8733 5.53453 24.6056 5.38019 25.2509 5.38019C37.2126 5.38473 49.172 5.38473 61.1337 5.38473V5.37792ZM36.5306 66.549H36.5169C36.5169 69.8173 36.5306 73.0856 36.5078 76.3539C36.5032 77.1346 36.7595 77.4955 37.5925 77.4909C38.3637 77.4864 38.636 77.18 38.6337 76.4356C38.62 69.8627 38.6154 63.2899 38.6337 56.717C38.636 55.8296 38.2035 55.564 37.4094 55.5504C36.5146 55.5345 36.5284 56.1292 36.5284 56.7465C36.5306 60.0148 36.5284 63.2831 36.5284 66.5513L36.5306 66.549ZM83.6542 66.549H83.6496C83.6496 69.8173 83.6633 73.0833 83.6404 76.3516C83.6359 77.121 83.8578 77.4978 84.7091 77.4955C85.5765 77.4932 85.7595 77.0711 85.7572 76.3244C85.7435 69.8264 85.7367 63.3284 85.7618 56.8305C85.7664 55.9272 85.4117 55.5595 84.5329 55.5527C83.5398 55.5459 83.6565 56.2381 83.6565 56.8577C83.6519 60.0874 83.6565 63.3194 83.6565 66.549H83.6542ZM59.8475 8.26944C57.2113 7.67479 35.0477 7.80189 34.1141 8.47597C36.2309 7.97892 37.9426 9.04338 39.7459 9.77647C40.0137 9.88541 40.3157 9.96031 40.6018 9.96031C45.1169 9.97166 49.6342 9.96712 54.1493 9.96712C54.607 9.96712 55.0762 9.93081 55.3347 9.50865C55.8794 8.61669 56.765 8.56449 57.6575 8.49186C58.312 8.43966 58.9848 8.6008 59.8475 8.27171V8.26944ZM32.4321 14.688C32.4321 14.688 32.4321 14.6675 32.4321 14.6585C33.2422 14.6585 34.0546 14.6494 34.8647 14.6607C35.4482 14.6698 35.7686 14.436 35.7594 13.8232C35.7503 13.165 35.764 12.5068 35.7549 11.8486C35.7503 11.4015 35.4917 11.1995 35.0569 11.1678C33.2925 11.0384 31.5281 10.9499 29.7637 11.1814C29.3587 11.2336 29.0932 11.3766 28.9902 11.8169C28.4822 14.0093 28.9925 14.6789 31.2146 14.688C31.6197 14.688 32.0247 14.688 32.4298 14.688H32.4321ZM89.8719 14.6766C89.8719 14.6766 89.8719 14.663 89.8719 14.6562C90.6843 14.6562 91.4967 14.6494 92.3091 14.6585C92.8903 14.6653 93.2153 14.4292 93.2176 13.821C93.2198 13.1991 93.2542 12.5749 93.2404 11.953C93.229 11.4832 92.9658 11.2018 92.4761 11.1859C91.1877 11.1451 89.8902 11.0089 88.6087 11.0997C86.2927 11.2631 86.2607 11.3834 86.4712 13.7506C86.5285 14.3906 86.7939 14.6834 87.4324 14.6766C88.2448 14.6675 89.0572 14.6766 89.8696 14.6766H89.8719ZM61.0879 14.6698C61.0879 14.6698 61.0879 14.6494 61.0879 14.6403C61.9392 14.6403 62.7905 14.6403 63.6395 14.6403C64.1155 14.6403 64.4931 14.4406 64.4198 13.939C64.2871 13.0447 65.0835 12.062 64.1681 11.2585C64.0743 11.1768 63.8844 11.1859 63.7379 11.1814C62.4838 11.1496 61.2229 11.0384 59.9734 11.1156C57.6209 11.2608 57.5934 11.3652 57.8063 13.737C57.8635 14.3702 58.1038 14.6811 58.756 14.6721C59.5317 14.6607 60.3098 14.6698 61.0856 14.6698H61.0879Z" fill="#353957"/>
<path d="M51.9226 32.1168C52.7327 30.2125 53.3185 28.567 53.7396 26.8603C54.1973 25.0037 54.3827 24.9084 56.2889 25.2738C56.4262 25.301 56.5841 25.2988 56.7146 25.2579C59.6003 24.341 62.4998 24.5816 65.4015 25.1649C65.6532 25.2148 65.8981 25.3759 66.1361 25.1876C67.2002 24.3433 67.7792 25.1331 68.2758 25.873C69.3811 27.5253 70.4155 29.2252 71.4887 30.898C71.6627 31.168 71.7771 31.5017 72.1753 31.6742C72.4819 31.3473 72.3652 30.9229 72.3789 30.5552C72.4247 29.1231 72.4087 27.6887 72.4613 26.2566C72.4842 25.6029 72.6764 24.8585 73.5094 25.0151C74.5667 25.2125 75.5233 24.8585 76.5233 24.7926C78.4776 24.6655 80.4457 24.7518 82.4069 24.7609C82.9058 24.7609 83.352 24.9311 83.6884 25.3215C84.2331 25.9547 84.1232 26.5879 83.3497 26.9148C82.8806 27.1122 82.3565 27.2529 81.8508 27.2802C80.9629 27.3256 80.734 27.7749 80.7661 28.5739C80.8484 30.6665 80.9011 32.7591 80.9285 34.8517C80.9377 35.5076 80.853 36.1703 80.7638 36.8217C80.6631 37.5843 80.091 37.8589 79.4159 37.8748C78.6447 37.8907 78.4662 37.3187 78.393 36.6855C78.0886 34.0459 78.2511 31.3973 78.2717 28.7554C78.2808 27.5979 77.8323 27.2143 76.7659 27.1077C74.9832 26.9306 74.9832 26.8898 74.9786 28.7305C74.974 30.7527 74.974 32.7727 74.9672 34.7949C74.9672 35.2715 74.99 35.755 74.9283 36.2271C74.8482 36.824 74.9351 37.582 74.1731 37.7999C73.3744 38.0291 72.8458 37.5162 72.4362 36.9034C71.2507 35.1263 70.0768 33.3424 68.8982 31.563C68.7815 31.3859 68.7174 31.1544 68.3215 31.0931C68.3215 32.6002 68.3307 34.0868 68.3215 35.5711C68.3078 37.6251 67.9485 37.9179 65.9324 37.5843C65.7608 37.5571 65.5663 37.5911 65.3992 37.6456C62.9712 38.4263 60.4974 38.1313 58.0304 37.9656C57.0784 37.902 56.5956 37.4232 56.5201 36.4291C56.3347 34.0051 56.4903 31.5811 56.4171 29.1571C56.4011 28.6533 56.4171 28.1472 56.3049 27.6251C55.353 30.2488 54.2911 32.8158 53.6435 35.5212C53.4993 36.1272 53.3666 36.7468 52.9638 37.2529C52.3048 38.0768 51.5999 38.0655 50.9706 37.2302C50.609 36.7513 50.426 36.1907 50.2497 35.6279C49.4305 33.0337 48.5952 30.4463 47.8034 27.8453C47.5677 27.0714 47.3778 26.6923 46.3777 27.0441C45.0115 27.523 43.5126 27.3029 42.0754 27.262C40.9244 27.2302 40.7619 27.7727 40.7459 28.7395C40.7298 29.72 40.9976 30.1331 42.0457 30.1127C43.3364 30.0877 44.6316 30.1989 45.9223 30.2897C46.5676 30.3351 47.2565 30.503 47.3274 31.277C47.4052 32.1258 46.721 32.3936 46.0344 32.5094C44.6751 32.7364 43.2975 32.6456 41.9336 32.5979C40.7207 32.5571 40.7848 33.2675 40.7596 34.0891C40.7321 34.922 40.8832 35.3873 41.8969 35.3555C43.2242 35.3124 44.5653 35.267 45.8788 35.5621C46.6065 35.7255 47.3045 36.016 47.2793 36.8694C47.2587 37.6456 46.5356 37.8271 45.9154 37.9293C43.7849 38.2788 41.6383 38.1789 39.5009 37.9928C38.7206 37.9247 38.2377 37.4186 38.1027 36.6356C38.0341 36.2384 37.9562 35.8367 37.954 35.4372C37.9402 32.7545 37.9219 30.0718 37.954 27.3891C37.9791 25.2488 38.5261 24.7427 40.6543 24.7427C41.5788 24.7427 42.5194 24.8426 43.4279 24.7223C45.1992 24.4885 46.8995 25.2284 48.6822 24.9697C49.538 24.8471 49.7509 25.7323 49.9522 26.4041C50.4992 28.2289 51.069 30.0423 51.9249 32.1168H51.9226ZM61.8567 27.2824C61.2297 27.2824 60.6026 27.2938 59.9779 27.2802C58.9023 27.2552 58.9801 27.9928 58.9778 28.71C58.9778 29.4454 58.9572 30.1399 60.0122 30.1217C61.0809 30.1036 62.1565 30.0537 63.216 30.1535C66.1269 30.4281 65.7081 30.4645 65.7356 27.6615C65.7402 27.0941 65.548 26.8489 64.9301 27.0214C63.9277 27.3029 62.8888 27.2892 61.8567 27.2802V27.2824ZM65.7287 33.996C65.3351 33.6964 66.3581 32.5798 64.9781 32.5934C63.3144 32.6093 61.6507 32.6115 59.987 32.6274C58.8428 32.6388 59.019 33.4785 58.9778 34.2048C58.9344 34.9606 59.1678 35.3827 60.0237 35.3737C61.4997 35.3578 62.9918 35.2965 64.4472 35.5757C65.5525 35.7867 65.9324 35.4304 65.731 34.366C65.7173 34.2956 65.731 34.2184 65.731 33.996H65.7287Z" fill="#353957"/>
<path d="M97.8813 80.0511C97.2565 80.0035 96.6272 79.983 96.007 79.9013C95.4601 79.8287 94.9795 79.5768 94.9567 78.9549C94.9338 78.3557 95.2358 77.8269 95.8285 77.6862C97.2817 77.3344 98.76 77.3548 100.211 77.7179C100.82 77.87 100.888 78.4578 100.911 78.9708C100.934 79.4951 100.556 79.7266 100.09 79.8605C99.3642 80.067 98.6227 79.9966 97.8836 80.0534L97.8813 80.0511Z" fill="#353957"/>
</svg>
