<svg width="126" height="82" viewBox="0 0 126 82" fill="none" xmlns="http://www.w3.org/2000/svg">
<circle cx="118.508" cy="43.1535" r="6.5783" fill="#C7DEFF"/>
<circle cx="6.67303" cy="22.9523" r="6.5783" fill="#C7DEFF"/>
<g filter="url(#filter0_d_670_313)">
<path d="M79.7456 3.98438H40.2461C32.2634 3.98438 25.7922 10.4555 25.7922 18.4379V56.0309C25.7922 64.0134 32.2634 70.4844 40.2461 70.4844H79.7456C87.7283 70.4844 94.1995 64.0134 94.1995 56.0309V18.4379C94.1995 10.4555 87.7283 3.98438 79.7456 3.98438Z" stroke="#353957" stroke-width="3" stroke-miterlimit="10"/>
<g filter="url(#filter1_d_670_313)">
<path d="M60.6548 53.8452C60.5408 55.4319 60.6548 56.9183 60.29 58.2816C58.8446 63.753 52.3928 65.9552 47.8424 62.5903C44.8148 60.3516 43.2737 57.1554 42.2843 53.6401C42.0426 52.7829 41.883 51.8983 41.7371 51.0138C41.5456 49.8603 42.0426 49.0669 43.0047 48.9028C43.9576 48.7386 44.678 49.3405 44.8695 50.4895C45.2799 52.947 45.9638 55.3316 47.4183 57.3743C48.1752 58.4366 49.1054 59.4488 50.1586 60.2012C51.9642 61.4915 53.8428 61.1131 55.5845 59.9002C57.0436 58.8835 57.8005 56.8408 57.4083 55.0581C56.9661 53.0428 55.4477 51.9987 53.1953 52.1765C52.8898 52.1993 52.5843 52.2813 52.2788 52.3041C51.408 52.3634 50.7331 51.8801 50.5599 51.0868C50.3729 50.2341 50.8015 49.532 51.6678 49.2082C52.6755 48.8344 53.7151 48.5152 54.6635 48.0273C55.6484 47.5167 56.1955 46.6413 56.2274 45.474C56.2913 43.0803 54.2714 41.4115 52.0554 42.2778C50.8106 42.7657 49.7711 43.7779 48.6585 44.5804C48.3622 44.7947 48.1661 45.1412 47.8697 45.36C47.2177 45.8388 46.5247 45.816 45.9137 45.2871C45.3027 44.7582 45.1933 44.0697 45.5671 43.3584C46.8666 40.8917 51.0386 38.6348 53.7607 38.9129C56.2457 39.1637 57.9601 40.5133 58.8765 42.7703C59.8112 45.0728 59.6015 47.3069 58.0056 49.3086C57.8369 49.5229 57.65 49.7235 57.4813 49.9195C58.2747 51.0548 59.3279 50.8953 60.3994 50.5852C61.8448 50.1657 62.9938 49.2858 63.9012 48.1185C64.7128 47.0744 65.456 45.971 66.1855 44.8631C67.9774 42.1547 71.0597 41.4024 73.873 43.0393C76.367 44.4892 77.6072 46.7735 77.9218 49.5456C78.4234 53.9501 77.3929 57.8713 73.7042 60.6753C69.5915 63.8032 64.6489 62.2529 62.1503 57.4153C61.7445 56.6311 62.091 55.7192 62.816 55.3362C63.5683 54.9395 64.3799 55.172 64.9225 55.9198C65.3922 56.5673 65.8116 57.2694 66.3679 57.8302C67.8817 59.3531 69.8104 59.5264 71.5886 58.3135C73.7498 56.8454 74.6891 54.6614 74.8305 52.1537C74.8989 50.9728 74.7985 49.7189 74.4429 48.6018C74.1511 47.6854 73.4991 46.778 72.765 46.1352C71.2831 44.8311 69.8058 45.1503 68.7115 46.7826C68.0914 47.7036 67.4759 48.6292 66.8102 49.5183C65.1961 51.6795 63.1944 53.3072 60.6411 53.8361L60.6548 53.8452Z" fill="#353957"/>
<path d="M63.7098 40.569C60.6685 40.455 58.4252 39.0142 56.46 37.0354C56.0497 36.6205 55.6484 36.1874 55.2928 35.7223C54.7183 34.9609 54.8232 34.0353 55.5071 33.4882C56.1546 32.9684 57.0346 33.0413 57.6866 33.6751C58.4799 34.4502 59.2004 35.3165 60.0758 35.9822C62.7659 38.034 65.447 37.8379 67.9091 35.4989C68.1553 35.2663 68.3788 35.0019 68.6432 34.7922C69.3044 34.2587 70.1616 34.2952 70.7452 34.856C71.3197 35.4077 71.4291 36.3287 70.8774 36.9534C68.935 39.1373 66.5914 40.5508 63.7143 40.569H63.7098Z" fill="#353957"/>
<path d="M63.1169 34.9651C62.5789 34.5912 62.0864 34.377 61.7718 34.0076C61.1152 33.2325 60.5362 32.389 59.9662 31.5455C59.4282 30.7522 59.565 29.8311 60.2489 29.3114C60.9876 28.7506 61.8949 28.8782 62.5242 29.6944C63.1671 30.5242 63.8373 31.3495 64.3297 32.2659C64.5668 32.7082 64.5988 33.4286 64.4073 33.8936C64.234 34.3177 63.6321 34.5639 63.1215 34.9697L63.1169 34.9651Z" fill="#353957"/>
</g>
<path d="M50.8835 14.9594C50.8835 16.7285 49.4244 18.1647 47.6553 18.1465C45.9181 18.1282 44.5001 16.6874 44.5046 14.9412C44.5046 13.1675 45.95 11.7495 47.7374 11.7678C49.4883 11.7814 50.888 13.204 50.8835 14.9639V14.9594ZM47.7055 16.0126C48.28 16.0035 48.7633 15.502 48.7496 14.9229C48.7359 14.3347 48.2435 13.8788 47.6508 13.9016C47.0899 13.9244 46.634 14.394 46.634 14.9503C46.634 15.5248 47.1355 16.0217 47.7055 16.0172V16.0126Z" fill="#353957"/>
<path d="M73.6494 11.7628C75.3957 11.7765 76.8046 13.2036 76.8046 14.9544C76.8046 16.719 75.341 18.1597 73.5765 18.1415C71.8119 18.1233 70.403 16.6642 70.4258 14.8769C70.4486 13.1352 71.8849 11.7491 73.654 11.7628H73.6494ZM73.6221 16.0122C74.1966 16.0077 74.6844 15.497 74.6708 14.9225C74.6571 14.3389 74.1601 13.8738 73.5719 13.8966C73.0065 13.9149 72.5597 14.3799 72.5551 14.9408C72.5551 15.5198 73.0476 16.0168 73.6221 16.0077V16.0122Z" fill="#353957"/>
<path d="M26.7407 22.7139H93.0049" stroke="#353957" stroke-width="3" stroke-miterlimit="10"/>
</g>
<defs>
<filter id="filter0_d_670_313" x="20.2922" y="0.484375" width="83.4072" height="81.5" filterUnits="userSpaceOnUse" color-interpolation-filters="sRGB">
<feFlood flood-opacity="0" result="BackgroundImageFix"/>
<feColorMatrix in="SourceAlpha" type="matrix" values="0 0 0 0 0 0 0 0 0 0 0 0 0 0 0 0 0 0 127 0" result="hardAlpha"/>
<feOffset dx="2" dy="4"/>
<feGaussianBlur stdDeviation="3"/>
<feComposite in2="hardAlpha" operator="out"/>
<feColorMatrix type="matrix" values="0 0 0 0 0.454902 0 0 0 0 0.509804 0 0 0 0 0.972549 0 0 0 0.5 0"/>
<feBlend mode="normal" in2="BackgroundImageFix" result="effect1_dropShadow_670_313"/>
<feBlend mode="normal" in="SourceGraphic" in2="effect1_dropShadow_670_313" result="shape"/>
</filter>
<filter id="filter1_d_670_313" x="37.6965" y="26.9688" width="48.3439" height="47.2168" filterUnits="userSpaceOnUse" color-interpolation-filters="sRGB">
<feFlood flood-opacity="0" result="BackgroundImageFix"/>
<feColorMatrix in="SourceAlpha" type="matrix" values="0 0 0 0 0 0 0 0 0 0 0 0 0 0 0 0 0 0 127 0" result="hardAlpha"/>
<feOffset dx="2" dy="4"/>
<feGaussianBlur stdDeviation="3"/>
<feComposite in2="hardAlpha" operator="out"/>
<feColorMatrix type="matrix" values="0 0 0 0 0.454902 0 0 0 0 0.509804 0 0 0 0 0.972549 0 0 0 0.5 0"/>
<feBlend mode="normal" in2="BackgroundImageFix" result="effect1_dropShadow_670_313"/>
<feBlend mode="normal" in="SourceGraphic" in2="effect1_dropShadow_670_313" result="shape"/>
</filter>
</defs>
</svg>
