<svg width="174" height="174" viewBox="0 0 174 174" fill="none" xmlns="http://www.w3.org/2000/svg">
<g filter="url(#filter0_d_273_149)">
<ellipse cx="69.7356" cy="66.8585" rx="49.5027" ry="49.7296" fill="url(#paint0_radial_273_149)" shape-rendering="crispEdges"/>
</g>
<ellipse cx="69.7356" cy="66.8585" rx="49.5027" ry="49.7296" fill="url(#paint1_radial_273_149)"/>
<path d="M64.4496 44.3662H64.4478C59.5452 44.3662 55.5709 48.3386 55.5709 53.2387V85.7755C55.5709 90.6757 59.5452 94.648 64.4478 94.648H64.4496C69.3522 94.648 73.3264 90.6757 73.3264 85.7755V53.2387C73.3264 48.3386 69.3522 44.3662 64.4496 44.3662Z" stroke="white" stroke-width="1.55" stroke-miterlimit="10" stroke-linecap="round"/>
<path d="M73.3268 66.8113C74.9914 66.8113 76.3408 65.4625 76.3408 63.7987C76.3408 62.1349 74.9914 60.7861 73.3268 60.7861C71.6622 60.7861 70.3127 62.1349 70.3127 63.7987C70.3127 65.4625 71.6622 66.8113 73.3268 66.8113Z" fill="#7482F8" stroke="white" stroke-width="1.55" stroke-miterlimit="10" stroke-linecap="round"/>
<path d="M55.5712 67.8523C57.2358 67.8523 58.5852 66.5035 58.5852 64.8397C58.5852 63.1759 57.2358 61.8271 55.5712 61.8271C53.9066 61.8271 52.5571 63.1759 52.5571 64.8397C52.5571 66.5035 53.9066 67.8523 55.5712 67.8523Z" fill="#7482F8" stroke="white" stroke-width="1.55" stroke-miterlimit="10" stroke-linecap="round"/>
<path d="M55.5712 79.115C57.2358 79.115 58.5852 77.7662 58.5852 76.1024C58.5852 74.4386 57.2358 73.0898 55.5712 73.0898C53.9066 73.0898 52.5571 74.4386 52.5571 76.1024C52.5571 77.7662 53.9066 79.115 55.5712 79.115Z" fill="#7482F8" stroke="white" stroke-width="1.55" stroke-miterlimit="10" stroke-linecap="round"/>
<path d="M55.5712 90.1501C57.2358 90.1501 58.5852 88.8014 58.5852 87.1376C58.5852 85.4738 57.2358 84.125 55.5712 84.125C53.9066 84.125 52.5571 85.4738 52.5571 87.1376C52.5571 88.8014 53.9066 90.1501 55.5712 90.1501Z" fill="#7482F8" stroke="white" stroke-width="1.55" stroke-miterlimit="10" stroke-linecap="round"/>
<path d="M73.3268 90.1501C74.9914 90.1501 76.3408 88.8014 76.3408 87.1376C76.3408 85.4738 74.9914 84.125 73.3268 84.125C71.6622 84.125 70.3127 85.4738 70.3127 87.1376C70.3127 88.8014 71.6622 90.1501 73.3268 90.1501Z" fill="#7482F8" stroke="white" stroke-width="1.55" stroke-miterlimit="10" stroke-linecap="round"/>
<path d="M73.3268 79.115C74.9914 79.115 76.3408 77.7662 76.3408 76.1024C76.3408 74.4386 74.9914 73.0898 73.3268 73.0898C71.6622 73.0898 70.3127 74.4386 70.3127 76.1024C70.3127 77.7662 71.6622 79.115 73.3268 79.115Z" fill="#7482F8" stroke="white" stroke-width="1.55" stroke-miterlimit="10" stroke-linecap="round"/>
<path d="M64.4479 97.6609C66.1125 97.6609 67.4619 96.3121 67.4619 94.6483C67.4619 92.9845 66.1125 91.6357 64.4479 91.6357C62.7833 91.6357 61.4338 92.9845 61.4338 94.6483C61.4338 96.3121 62.7833 97.6609 64.4479 97.6609Z" fill="#7482F8" stroke="white" stroke-width="1.55" stroke-miterlimit="10" stroke-linecap="round"/>
<path d="M55.5712 56.115C57.2358 56.115 58.5852 54.7662 58.5852 53.1024C58.5852 51.4386 57.2358 50.0898 55.5712 50.0898C53.9066 50.0898 52.5571 51.4386 52.5571 53.1024C52.5571 54.7662 53.9066 56.115 55.5712 56.115Z" fill="#7482F8" stroke="white" stroke-width="1.55" stroke-miterlimit="10" stroke-linecap="round"/>
<path d="M63.046 47.3786C64.7106 47.3786 66.0601 46.0299 66.0601 44.3661C66.0601 42.7023 64.7106 41.3535 63.046 41.3535C61.3814 41.3535 60.032 42.7023 60.032 44.3661C60.032 46.0299 61.3814 47.3786 63.046 47.3786Z" fill="#7482F8" stroke="white" stroke-width="1.55" stroke-miterlimit="10" stroke-linecap="round"/>
<path d="M67.8811 46.8692C71.4943 46.8692 75.1057 46.8692 78.7189 46.8692C78.8068 46.8692 78.9276 46.9052 78.9715 46.8152C79.021 46.7144 78.8947 46.6658 78.8361 46.6082C77.6665 45.4525 76.4895 44.3059 75.3254 43.1449C73.9635 41.7858 73.6688 39.8724 74.5712 38.1876C75.8525 35.7953 79.1582 35.0285 81.3602 37.0841C83.2291 38.8284 85.043 40.6302 86.8716 42.4159C89.4342 44.9179 92.0187 47.3984 94.4971 49.9832C96.3092 51.8733 97.2775 54.1197 97.3251 56.719C97.3525 58.168 97.3525 59.617 97.3086 61.0679C97.2647 62.5151 96.9004 63.8741 96.2323 65.154C95.0206 67.4742 93.1591 69.1014 90.6917 70.0447C89.3957 70.5397 88.0431 70.6927 86.6465 70.6873C82.2663 70.6675 77.8861 70.6405 73.5059 70.7017C73.2094 70.7053 72.9092 70.7035 72.62 70.6459C71.0733 70.3327 70.0794 69.4146 69.6621 67.926C69.3875 66.945 69.6493 66.0342 70.1837 65.1882C70.2588 65.0694 70.3119 64.9955 70.1197 64.9307C67.9689 64.2197 66.8707 61.7951 68.1373 59.7412C68.3204 59.4442 68.3167 59.4406 68.0019 59.3056C67.9323 59.275 67.8628 59.2462 67.7932 59.2174C66.5193 58.6756 65.6333 57.349 65.6461 55.9846C65.6516 55.3275 65.8457 54.7173 66.177 54.1521C66.2831 53.9721 66.2319 53.9325 66.0488 53.9469C65.9811 53.9523 65.9116 53.9469 65.8438 53.9469C62.9921 53.9469 65.0824 53.9469 62.2306 53.9469C61.6851 53.9469 61.158 53.8551 60.6619 53.6157C58.8681 52.7445 58.0847 50.7158 58.9194 48.9716C59.5564 47.6414 60.6564 46.8962 62.1684 46.8854C65.7194 46.862 64.3301 46.8782 67.8811 46.8782V46.8692Z" fill="#7482F8"/>
<path d="M67.4518 46.5141C71.1176 46.5141 74.7816 46.5141 78.4475 46.5141C78.5367 46.5141 78.6592 46.5512 78.7038 46.4584C78.7539 46.3545 78.6258 46.3043 78.5664 46.2449C77.3797 45.0533 76.1856 43.8709 75.0045 42.6737C73.6228 41.2723 73.3238 39.2992 74.2394 37.5618C75.5393 35.0949 78.8932 34.3042 81.1273 36.4239C83.0234 38.2226 84.8637 40.0806 86.7189 41.9219C89.3188 44.502 91.941 47.0598 94.4555 49.7253C96.294 51.6742 97.2764 53.9907 97.3247 56.671C97.3526 58.1653 97.3526 59.6595 97.308 61.1556C97.2634 62.6479 96.8939 64.0493 96.216 65.3691C94.9866 67.7617 93.098 69.4396 90.5947 70.4123C89.2798 70.9227 87.9075 71.0805 86.4905 71.0749C82.0465 71.0545 77.6025 71.0267 73.1586 71.0898C72.8577 71.0935 72.5531 71.0916 72.2597 71.0322C70.6905 70.7093 69.6821 69.7626 69.2587 68.2276C68.9801 67.216 69.2457 66.2767 69.788 65.4043C69.8641 65.2818 69.918 65.2057 69.723 65.1389C67.5409 64.4057 66.4266 61.9054 67.7117 59.7876C67.8975 59.4813 67.8937 59.4776 67.5743 59.3384C67.5037 59.3068 67.4332 59.2771 67.3626 59.2474C66.0701 58.6887 65.1713 57.3207 65.1843 55.9137C65.1898 55.2362 65.3867 54.607 65.7228 54.0242C65.8305 53.8385 65.7785 53.7977 65.5928 53.8125C65.5241 53.8181 65.4535 53.8125 65.3848 53.8125C62.4915 53.8125 64.6123 53.8125 61.719 53.8125C61.1655 53.8125 60.6307 53.7179 60.1274 53.471C58.3075 52.5726 57.5127 50.4807 58.3595 48.6821C59.0058 47.3104 60.1219 46.5419 61.6558 46.5308C65.2585 46.5067 63.849 46.5234 67.4518 46.5234V46.5141ZM61.8155 48.0696C61.0727 48.0696 60.445 48.3146 60.0104 48.9253C59.5295 49.6009 59.4589 50.3341 59.8303 51.0877C60.2036 51.8413 60.8257 52.2348 61.6614 52.2459C62.9428 52.2626 64.2241 52.2515 65.5037 52.2515C69.8864 52.2515 69.255 52.2515 73.6395 52.2515C73.7937 52.2515 73.9478 52.2497 74.1019 52.2571C74.5681 52.2794 74.8448 52.5838 74.8355 53.0627C74.8262 53.5267 74.5439 53.8088 74.0778 53.8088C72.4027 53.8088 70.7295 53.8088 69.0544 53.8088C68.7443 53.8088 68.4379 53.8478 68.1444 53.9499C67.2159 54.2673 66.6439 55.2344 66.7888 56.2441C66.9225 57.1871 67.7452 57.95 68.6997 57.9926C70.6886 58.0817 72.6813 58.0093 74.6702 58.0316C74.8318 58.0316 74.9952 58.0242 75.1568 58.0428C75.5375 58.0855 75.7455 58.3175 75.7659 58.7036C75.79 59.1602 75.6118 59.446 75.2422 59.5407C75.0825 59.5815 74.9209 59.5815 74.7594 59.5815C73.4483 59.5815 72.1353 59.5741 70.8242 59.5815C69.9458 59.5852 69.307 60.0177 68.9578 60.7955C68.2893 62.2915 69.4295 63.7412 70.7351 63.7375C72.594 63.7319 74.4548 63.7375 76.3137 63.7375C76.4363 63.7375 76.5607 63.7412 76.6814 63.7616C77.1476 63.8414 77.3927 64.1626 77.35 64.6303C77.3091 65.0609 77.0138 65.3245 76.5514 65.3245C75.3165 65.3245 74.0815 65.3097 72.8484 65.3245C72.0963 65.3319 71.4853 65.6493 71.0823 66.2953C70.6478 66.9876 70.6404 67.7227 71.0155 68.4299C71.3888 69.1297 72.0109 69.5009 72.8094 69.5028C77.6397 69.5102 82.4718 69.5325 87.3021 69.4935C89.2427 69.4786 90.9884 68.7881 92.4944 67.5556C94.1677 66.1839 95.2095 64.4261 95.6255 62.3027C95.6961 61.9389 95.7406 61.5713 95.7406 61.202C95.7462 59.5834 95.7833 57.9629 95.7313 56.3462C95.6775 54.6831 95.1111 53.1685 94.151 51.8042C93.5344 50.9281 92.7489 50.2042 92.0079 49.445C90.6132 48.0157 89.2037 46.5995 87.7868 45.1925C85.2314 42.6551 82.6705 40.1233 80.1022 37.5989C78.7632 36.2829 76.5459 36.6003 75.6545 38.2393C75.0268 39.392 75.2496 40.721 76.1187 41.5915C77.74 43.2194 79.3705 44.8398 80.9973 46.464C81.1236 46.5883 81.248 46.7164 81.3668 46.8463C81.5804 47.0802 81.6733 47.3438 81.5358 47.6519C81.3966 47.9656 81.1458 48.0807 80.8116 48.0807C76.7984 48.077 72.7853 48.0788 68.774 48.0788C64.785 48.0788 65.8082 48.0807 61.8192 48.077L61.8155 48.0696Z" fill="white"/>
<defs>
<filter id="filter0_d_273_149" x="0.23291" y="0.128906" width="173.005" height="173.459" filterUnits="userSpaceOnUse" color-interpolation-filters="sRGB">
<feFlood flood-opacity="0" result="BackgroundImageFix"/>
<feColorMatrix in="SourceAlpha" type="matrix" values="0 0 0 0 0 0 0 0 0 0 0 0 0 0 0 0 0 0 127 0" result="hardAlpha"/>
<feOffset dx="17" dy="20"/>
<feGaussianBlur stdDeviation="18.5"/>
<feComposite in2="hardAlpha" operator="out"/>
<feColorMatrix type="matrix" values="0 0 0 0 0.21 0 0 0 0 0.283182 0 0 0 0 0.9 0 0 0 0.5 0"/>
<feBlend mode="normal" in2="BackgroundImageFix" result="effect1_dropShadow_273_149"/>
<feBlend mode="normal" in="SourceGraphic" in2="effect1_dropShadow_273_149" result="shape"/>
</filter>
<radialGradient id="paint0_radial_273_149" cx="0" cy="0" r="1" gradientUnits="userSpaceOnUse" gradientTransform="translate(91.0376 82.1798) rotate(30.5044) scale(123.526 122.963)">
<stop stop-color="#7482F8"/>
<stop offset="1" stop-color="#7482F8" stop-opacity="0"/>
</radialGradient>
<radialGradient id="paint1_radial_273_149" cx="0" cy="0" r="1" gradientUnits="userSpaceOnUse" gradientTransform="translate(91.0376 82.1798) rotate(30.5044) scale(123.526 122.963)">
<stop stop-color="#7482F8"/>
<stop offset="1" stop-color="#7482F8" stop-opacity="0"/>
</radialGradient>
</defs>
</svg>
