<svg width="16" height="21" viewBox="0 0 16 21" fill="none" xmlns="http://www.w3.org/2000/svg">
<path d="M8.01593 17.0694C5.69207 17.0694 3.36875 17.0688 1.04489 17.071C0.869535 17.071 0.713367 17.0298 0.57159 16.9264C0.396768 16.7996 0.306692 16.6213 0.279509 16.4142C0.259255 16.2606 0.262986 16.1026 0.278976 15.948C0.304027 15.7065 0.44154 15.5326 0.625423 15.3859C0.995854 15.0899 1.28154 14.7211 1.51979 14.3127C1.68395 14.0311 1.822 13.7362 1.91207 13.4241C1.99735 13.1276 2.10555 12.8364 2.15192 12.5297C2.20042 12.209 2.242 11.8873 2.27984 11.5651C2.34966 10.9773 2.36565 10.3864 2.37898 9.79491C2.38804 9.38756 2.38324 8.98075 2.38804 8.57394C2.39124 8.27793 2.41309 7.98299 2.44613 7.68965C2.47385 7.4445 2.55806 7.21004 2.62575 6.97238C2.82349 6.27812 3.16248 5.6588 3.60113 5.09087C3.72905 4.92547 3.8671 4.76917 4.01101 4.61822C4.2258 4.39233 4.47151 4.20177 4.71882 4.01442C4.98159 3.81583 5.26621 3.65257 5.55616 3.49841C5.6958 3.42401 5.81946 3.33301 5.89568 3.19009C5.96443 3.06055 5.99108 2.92299 5.96657 2.77739C5.93352 2.58202 5.90367 2.38717 5.9074 2.18805C5.92073 1.51306 6.20801 0.977246 6.72822 0.562939C7.0107 0.337587 7.33156 0.187708 7.68974 0.136857C8.07243 0.0817229 8.44446 0.115981 8.80743 0.274959C9.39532 0.532964 9.80146 0.955835 10.0109 1.56231C10.1394 1.93326 10.1458 2.31598 10.0717 2.70138C10.004 3.05306 10.1335 3.32659 10.4485 3.48931C11.0092 3.77997 11.5284 4.13058 11.9745 4.57968C12.4734 5.08124 12.8699 5.65613 13.1561 6.3081C13.3278 6.69885 13.4482 7.10513 13.5463 7.51836C13.59 7.70197 13.5921 7.89306 13.6113 8.08094C13.6529 8.4915 13.631 8.90313 13.638 9.31423C13.6454 9.74138 13.6502 10.168 13.6678 10.5946C13.6881 11.0855 13.7478 11.5731 13.8032 12.0613C13.856 12.5307 13.9663 12.9852 14.1134 13.4305C14.342 14.1232 14.6976 14.7393 15.238 15.2387C15.318 15.3126 15.3974 15.387 15.4795 15.4576C15.6585 15.6107 15.7518 15.8061 15.7513 16.0422C15.7513 16.184 15.7651 16.3269 15.738 16.4682C15.6815 16.7643 15.4464 17.0051 15.1597 17.0619C15.0978 17.0742 15.036 17.0704 14.9742 17.0704C12.6551 17.0704 10.3355 17.0704 8.01646 17.0704L8.01593 17.0694ZM7.94557 4.36985C7.49733 4.37681 7.04002 4.44318 6.5939 4.60537C6.02626 4.81199 5.52738 5.12352 5.09192 5.53944C4.63994 5.97087 4.30362 6.48206 4.07976 7.06498C3.89908 7.53549 3.80847 8.02742 3.80261 8.53111C3.79461 9.24036 3.79888 9.9496 3.7653 10.6589C3.74504 11.0898 3.71519 11.5196 3.67042 11.9483C3.61926 12.4403 3.51426 12.9225 3.39167 13.4C3.28507 13.8159 3.13849 14.2195 2.95674 14.6092C2.88959 14.7537 2.86507 14.9074 2.89172 15.0647C2.93862 15.3468 3.15768 15.5749 3.41672 15.6188C3.75517 15.6766 4.03286 15.5588 4.18316 15.2837C4.2855 15.0969 4.37931 14.9036 4.44433 14.7002C4.55146 14.3641 4.67245 14.0338 4.7604 13.6896C4.87659 13.2357 4.95974 12.7786 5.01837 12.3155C5.06207 11.9698 5.10258 11.6234 5.1287 11.2755C5.16334 10.8077 5.18626 10.3393 5.19052 9.87038C5.19479 9.40308 5.19426 8.93632 5.19319 8.46902C5.19319 8.30308 5.20865 8.13929 5.25289 7.98085C5.40319 7.43807 5.64943 6.94883 6.0625 6.55647C6.34552 6.28776 6.66266 6.06669 7.02936 5.93501C7.36354 5.8151 7.71106 5.74284 8.07083 5.75569C8.17956 5.75944 8.28829 5.75676 8.39276 5.7209C8.67898 5.62347 8.81915 5.4115 8.857 5.12085C8.8975 4.80664 8.65712 4.46727 8.35118 4.39768C8.2238 4.36878 8.09588 4.37467 7.94611 4.37038L7.94557 4.36985ZM8.71415 2.23837C8.73068 1.95146 8.45139 1.55695 8.02712 1.54785C7.57514 1.53822 7.31664 1.9081 7.30971 2.22124C7.30118 2.61092 7.62205 2.92192 7.98981 2.92888C8.45778 2.93744 8.72321 2.55257 8.71415 2.23837Z" fill="#93002E"/>
<path d="M8.01179 18.0718C8.8891 18.0718 9.76641 18.0718 10.6432 18.0718C10.7434 18.0718 10.7461 18.0729 10.7151 18.1676C10.535 18.7142 10.2408 19.1836 9.79252 19.5503C9.35494 19.9089 8.85232 20.1145 8.29481 20.184C7.79592 20.2461 7.31943 20.1482 6.86478 19.9437C6.27369 19.6782 5.82971 19.2505 5.5227 18.6804C5.43209 18.5124 5.36494 18.3325 5.30631 18.15C5.28285 18.0772 5.28765 18.0713 5.366 18.0713C6.24757 18.0713 7.12915 18.0713 8.01072 18.0713L8.01179 18.0718Z" fill="#93002E"/>
</svg>
