<svg width="129" height="40" viewBox="0 0 129 40" fill="none" xmlns="http://www.w3.org/2000/svg">
<rect x="1.18457" y="0.568359" width="127.311" height="38.8556" rx="7" stroke="#93002E"/>
<path d="M47.9085 25.8613H45.8085L41.0535 18.6763V25.8613H38.9535V15.3763H41.0535L45.8085 22.5763V15.3763H47.9085V25.8613ZM53.6737 25.9963C52.8737 25.9963 52.1537 25.8213 51.5137 25.4713C50.8737 25.1113 50.3687 24.6063 49.9987 23.9563C49.6387 23.3063 49.4587 22.5563 49.4587 21.7063C49.4587 20.8563 49.6437 20.1063 50.0137 19.4563C50.3937 18.8063 50.9087 18.3063 51.5587 17.9563C52.2087 17.5963 52.9337 17.4163 53.7337 17.4163C54.5337 17.4163 55.2587 17.5963 55.9087 17.9563C56.5587 18.3063 57.0687 18.8063 57.4387 19.4563C57.8187 20.1063 58.0087 20.8563 58.0087 21.7063C58.0087 22.5563 57.8137 23.3063 57.4237 23.9563C57.0437 24.6063 56.5237 25.1113 55.8637 25.4713C55.2137 25.8213 54.4837 25.9963 53.6737 25.9963ZM53.6737 24.1663C54.0537 24.1663 54.4087 24.0763 54.7387 23.8963C55.0787 23.7063 55.3487 23.4263 55.5487 23.0563C55.7487 22.6863 55.8487 22.2363 55.8487 21.7063C55.8487 20.9163 55.6387 20.3113 55.2187 19.8913C54.8087 19.4613 54.3037 19.2463 53.7037 19.2463C53.1037 19.2463 52.5987 19.4613 52.1887 19.8913C51.7887 20.3113 51.5887 20.9163 51.5887 21.7063C51.5887 22.4963 51.7837 23.1063 52.1737 23.5363C52.5737 23.9563 53.0737 24.1663 53.6737 24.1663ZM61.9942 19.2763V23.2963C61.9942 23.5763 62.0592 23.7813 62.1892 23.9113C62.3292 24.0313 62.5592 24.0913 62.8792 24.0913H63.8542V25.8613H62.5342C60.7642 25.8613 59.8792 25.0013 59.8792 23.2813V19.2763H58.8892V17.5513H59.8792V15.4963H61.9942V17.5513H63.8542V19.2763H61.9942ZM66.4296 16.5613C66.0596 16.5613 65.7496 16.4463 65.4996 16.2163C65.2596 15.9763 65.1396 15.6813 65.1396 15.3313C65.1396 14.9813 65.2596 14.6913 65.4996 14.4613C65.7496 14.2213 66.0596 14.1013 66.4296 14.1013C66.7996 14.1013 67.1046 14.2213 67.3446 14.4613C67.5946 14.6913 67.7196 14.9813 67.7196 15.3313C67.7196 15.6813 67.5946 15.9763 67.3446 16.2163C67.1046 16.4463 66.7996 16.5613 66.4296 16.5613ZM67.4646 17.5513V25.8613H65.3646V17.5513H67.4646ZM73.3494 19.2763H71.8944V25.8613H69.7644V19.2763H68.8194V17.5513H69.7644V17.1313C69.7644 16.1113 70.0544 15.3613 70.6344 14.8813C71.2144 14.4013 72.0894 14.1763 73.2594 14.2063V15.9763C72.7494 15.9663 72.3944 16.0513 72.1944 16.2313C71.9944 16.4113 71.8944 16.7363 71.8944 17.2063V17.5513H73.3494V19.2763ZM82.6603 17.5513L77.5153 29.7913H75.2803L77.0803 25.6513L73.7503 17.5513H76.1053L78.2503 23.3563L80.4253 17.5513H82.6603ZM98.7815 15.3913V25.8613H96.6815V19.0513L93.8765 25.8613H92.2865L89.4665 19.0513V25.8613H87.3665V15.3913H89.7515L93.0815 23.1763L96.4115 15.3913H98.7815ZM108.583 21.5263C108.583 21.8263 108.563 22.0963 108.523 22.3363H102.448C102.498 22.9363 102.708 23.4063 103.078 23.7463C103.448 24.0863 103.903 24.2563 104.443 24.2563C105.223 24.2563 105.778 23.9213 106.108 23.2513H108.373C108.133 24.0513 107.673 24.7113 106.993 25.2313C106.313 25.7413 105.478 25.9963 104.488 25.9963C103.688 25.9963 102.968 25.8213 102.328 25.4713C101.698 25.1113 101.203 24.6063 100.843 23.9563C100.493 23.3063 100.318 22.5563 100.318 21.7063C100.318 20.8463 100.493 20.0913 100.843 19.4413C101.193 18.7913 101.683 18.2913 102.313 17.9413C102.943 17.5913 103.668 17.4163 104.488 17.4163C105.278 17.4163 105.983 17.5863 106.603 17.9263C107.233 18.2663 107.718 18.7513 108.058 19.3813C108.408 20.0013 108.583 20.7163 108.583 21.5263ZM106.408 20.9263C106.398 20.3863 106.203 19.9563 105.823 19.6363C105.443 19.3063 104.978 19.1413 104.428 19.1413C103.908 19.1413 103.468 19.3013 103.108 19.6213C102.758 19.9313 102.543 20.3663 102.463 20.9263H106.408Z" fill="#93002E"/>
<path d="M25.1946 27.0694C22.8708 27.0694 20.5475 27.0688 18.2236 27.071C18.0482 27.071 17.8921 27.0298 17.7503 26.9264C17.5755 26.7996 17.4854 26.6213 17.4582 26.4142C17.438 26.2606 17.4417 26.1026 17.4577 25.948C17.4827 25.7065 17.6203 25.5326 17.8041 25.3859C18.1746 25.0899 18.4603 24.7211 18.6985 24.3127C18.8627 24.0311 19.0007 23.7362 19.0908 23.4241C19.1761 23.1276 19.2843 22.8364 19.3306 22.5297C19.3791 22.209 19.4207 21.8873 19.4586 21.5651C19.5284 20.9773 19.5444 20.3864 19.5577 19.7949C19.5667 19.3876 19.562 18.9807 19.5667 18.5739C19.5699 18.2779 19.5918 17.983 19.6248 17.6897C19.6526 17.4445 19.7368 17.21 19.8045 16.9724C20.0022 16.2781 20.3412 15.6588 20.7798 15.0909C20.9078 14.9255 21.0458 14.7692 21.1897 14.6182C21.4045 14.3923 21.6502 14.2018 21.8975 14.0144C22.1603 13.8158 22.4449 13.6526 22.7349 13.4984C22.8745 13.424 22.9982 13.333 23.0744 13.1901C23.1431 13.0606 23.1698 12.923 23.1453 12.7774C23.1122 12.582 23.0824 12.3872 23.0861 12.188C23.0994 11.5131 23.3867 10.9772 23.9069 10.5629C24.1894 10.3376 24.5103 10.1877 24.8684 10.1369C25.2511 10.0817 25.6232 10.116 25.9861 10.275C26.574 10.533 26.9802 10.9558 27.1896 11.5623C27.3181 11.9333 27.3245 12.316 27.2504 12.7014C27.1827 13.0531 27.3122 13.3266 27.6272 13.4893C28.1879 13.78 28.7071 14.1306 29.1532 14.5797C29.6521 15.0812 30.0486 15.6561 30.3348 16.3081C30.5065 16.6989 30.6269 17.1051 30.725 17.5184C30.7687 17.702 30.7708 17.8931 30.79 18.0809C30.8316 18.4915 30.8097 18.9031 30.8167 19.3142C30.8241 19.7414 30.8289 20.168 30.8465 20.5946C30.8668 21.0855 30.9265 21.5731 30.9819 22.0613C31.0347 22.5307 31.145 22.9852 31.2921 23.4305C31.5208 24.1232 31.8763 24.7393 32.4167 25.2387C32.4967 25.3126 32.5761 25.387 32.6582 25.4576C32.8373 25.6107 32.9305 25.8061 32.93 26.0422C32.93 26.184 32.9439 26.3269 32.9167 26.4682C32.8602 26.7643 32.6251 27.0051 32.3384 27.0619C32.2765 27.0742 32.2147 27.0704 32.1529 27.0704C29.8338 27.0704 27.5142 27.0704 25.1952 27.0704L25.1946 27.0694ZM25.1243 14.3698C24.676 14.3768 24.2187 14.4432 23.7726 14.6054C23.205 14.812 22.7061 15.1235 22.2706 15.5394C21.8187 15.9709 21.4823 16.4821 21.2585 17.065C21.0778 17.5355 20.9872 18.0274 20.9813 18.5311C20.9733 19.2404 20.9776 19.9496 20.944 20.6589C20.9238 21.0898 20.8939 21.5196 20.8491 21.9483C20.798 22.4403 20.693 22.9225 20.5704 23.4C20.4638 23.8159 20.3172 24.2195 20.1355 24.6092C20.0683 24.7537 20.0438 24.9074 20.0704 25.0647C20.1173 25.3468 20.3364 25.5749 20.5954 25.6188C20.9339 25.6766 21.2116 25.5588 21.3619 25.2837C21.4642 25.0969 21.558 24.9036 21.623 24.7002C21.7302 24.3641 21.8512 24.0338 21.9391 23.6896C22.0553 23.2357 22.1384 22.7786 22.1971 22.3155C22.2408 21.9698 22.2813 21.6234 22.3074 21.2755C22.3421 20.8077 22.365 20.3393 22.3692 19.8704C22.3735 19.4031 22.373 18.9363 22.3719 18.469C22.3719 18.3031 22.3874 18.1393 22.4316 17.9808C22.5819 17.4381 22.8281 16.9488 23.2412 16.5565C23.5242 16.2878 23.8414 16.0667 24.2081 15.935C24.5423 15.8151 24.8898 15.7428 25.2495 15.7557C25.3583 15.7594 25.467 15.7568 25.5715 15.7209C25.8577 15.6235 25.9979 15.4115 26.0357 15.1208C26.0762 14.8066 25.8358 14.4673 25.5299 14.3977C25.4025 14.3688 25.2746 14.3747 25.1248 14.3704L25.1243 14.3698ZM25.8929 12.2384C25.9094 11.9515 25.6301 11.557 25.2058 11.5479C24.7539 11.5382 24.4954 11.9081 24.4884 12.2212C24.4799 12.6109 24.8008 12.9219 25.1685 12.9289C25.6365 12.9374 25.9019 12.5526 25.8929 12.2384Z" fill="#93002E"/>
<path d="M25.1905 28.0718C26.0678 28.0718 26.9451 28.0718 27.8219 28.0718C27.9221 28.0718 27.9248 28.0729 27.8938 28.1676C27.7137 28.7142 27.4195 29.1836 26.9712 29.5503C26.5336 29.9089 26.031 30.1145 25.4735 30.184C24.9746 30.2461 24.4981 30.1482 24.0435 29.9437C23.4524 29.6782 23.0084 29.2505 22.7014 28.6804C22.6108 28.5124 22.5436 28.3325 22.485 28.15C22.4616 28.0772 22.4664 28.0713 22.5447 28.0713C23.4263 28.0713 24.3079 28.0713 25.1894 28.0713L25.1905 28.0718Z" fill="#93002E"/>
</svg>
